G04*
G04 #@! TF.GenerationSoftware,Altium Limited,Altium Designer,25.7.1 (20)*
G04*
G04 Layer_Physical_Order=2*
G04 Layer_Color=16711680*
%FSLAX44Y44*%
%MOMM*%
G71*
G04*
G04 #@! TF.SameCoordinates,A8FB585E-9788-47CE-A5C5-86C31FD2FAB8*
G04*
G04*
G04 #@! TF.FilePolarity,Positive*
G04*
G01*
G75*
%ADD12C,0.2032*%
%ADD13C,0.2540*%
%ADD14O,3.6000X13.6000*%
%ADD15C,4.0000*%
D12*
X530556Y510000D02*
G03*
X487444Y510000I-21556J0D01*
G01*
Y410000D02*
G03*
X530556Y410000I21556J0D01*
G01*
X476016Y500000D02*
G03*
X476016Y500000I-26016J0D01*
G01*
X530556Y-410000D02*
G03*
X487444Y-410000I-21556J0D01*
G01*
Y-510000D02*
G03*
X530556Y-510000I21556J0D01*
G01*
X476016Y-500000D02*
G03*
X476016Y-500000I-26016J0D01*
G01*
X-423984Y500000D02*
G03*
X-423984Y500000I-26016J0D01*
G01*
X-487444Y510000D02*
G03*
X-530556Y510000I-21556J0D01*
G01*
Y410000D02*
G03*
X-487444Y410000I21556J0D01*
G01*
Y-410000D02*
G03*
X-530556Y-410000I-21556J0D01*
G01*
X-423984Y-500000D02*
G03*
X-423984Y-500000I-26016J0D01*
G01*
X-530556Y-510000D02*
G03*
X-487444Y-510000I21556J0D01*
G01*
X515283Y543607D02*
X543607Y515283D01*
X522467Y543607D02*
X543607Y522467D01*
X508099Y543607D02*
X543607Y508099D01*
X342862Y543607D02*
X543607Y342862D01*
X335678Y543607D02*
X543607Y335678D01*
X528078Y520035D02*
X543607Y535564D01*
X525144Y524285D02*
X543607Y542748D01*
X328494Y543607D02*
X543607Y328494D01*
X321309Y543607D02*
X543607Y321309D01*
X314125Y543607D02*
X543607Y314125D01*
X510788Y531482D02*
X522913Y543607D01*
X502753Y530631D02*
X515729Y543607D01*
X516645Y530155D02*
X530098Y543607D01*
X500915D02*
X513425Y531097D01*
X474281Y509343D02*
X508545Y543607D01*
X529652D02*
X543607Y529652D01*
X536836Y543607D02*
X543607Y536836D01*
X525144Y524285D02*
X543607Y542748D01*
X521345Y527671D02*
X537282Y543607D01*
X235099D02*
X543607Y235099D01*
X242283Y543607D02*
X543607Y242283D01*
X227915Y543607D02*
X543607Y227915D01*
X220730Y543607D02*
X543607Y220730D01*
X213546Y543607D02*
X543607Y213546D01*
X199178Y543607D02*
X543607Y199178D01*
X206362Y543607D02*
X543607Y206362D01*
X191994Y543607D02*
X543607Y191994D01*
X184809Y543607D02*
X543607Y184809D01*
X177625Y543607D02*
X543607Y177625D01*
X299757Y543607D02*
X543607Y299757D01*
X306941Y543607D02*
X543607Y306941D01*
X292573Y543607D02*
X543607Y292572D01*
X285388Y543607D02*
X543607Y285388D01*
X278204Y543607D02*
X543607Y278204D01*
X271020Y543607D02*
X543607Y271020D01*
X263836Y543607D02*
X543607Y263836D01*
X256651Y543607D02*
X543607Y256651D01*
X249467Y543607D02*
X543607Y249467D01*
X91415Y543607D02*
X543607Y91415D01*
X98599Y543607D02*
X543607Y98599D01*
X84230Y543607D02*
X543607Y84230D01*
X77046Y543607D02*
X543607Y77046D01*
X69862Y543607D02*
X543607Y69862D01*
X55494Y543607D02*
X543607Y55493D01*
X62678Y543607D02*
X543607Y62678D01*
X48309Y543607D02*
X543607Y48309D01*
X41125Y543607D02*
X543607Y41125D01*
X33941Y543607D02*
X543607Y33941D01*
X163257Y543607D02*
X543607Y163257D01*
X170441Y543607D02*
X543607Y170441D01*
X156073Y543607D02*
X543607Y156073D01*
X148888Y543607D02*
X543607Y148888D01*
X141704Y543607D02*
X543607Y141704D01*
X127336Y543607D02*
X543607Y127336D01*
X134520Y543607D02*
X543607Y134520D01*
X120152Y543607D02*
X543607Y120151D01*
X112967Y543607D02*
X543607Y112967D01*
X105783Y543607D02*
X543607Y105783D01*
X-45085Y543607D02*
X543607Y-45086D01*
X-37901Y543607D02*
X543607Y-37901D01*
X-52270Y543607D02*
X543607Y-52270D01*
X-59454Y543607D02*
X543607Y-59454D01*
X-66638Y543607D02*
X543607Y-66638D01*
X-81006Y543607D02*
X543607Y-81006D01*
X-73822Y543607D02*
X543607Y-73822D01*
X-88191Y543607D02*
X543607Y-88191D01*
X-95375Y543607D02*
X543607Y-95375D01*
X-102559Y543607D02*
X543607Y-102559D01*
X19572Y543607D02*
X543607Y19572D01*
X26757Y543607D02*
X543607Y26757D01*
X12388Y543607D02*
X543607Y12388D01*
X5204Y543607D02*
X543607Y5204D01*
X-1980Y543607D02*
X543607Y-1980D01*
X-9164Y543607D02*
X543607Y-9164D01*
X-16349Y543607D02*
X543607Y-16349D01*
X-23533Y543607D02*
X543607Y-23533D01*
X-30717Y543607D02*
X543607Y-30717D01*
X530556Y465039D02*
X543607Y478091D01*
X530556Y485229D02*
X543607Y472178D01*
X530556Y478045D02*
X543607Y464994D01*
X530556Y492413D02*
X543607Y479362D01*
X530556Y472224D02*
X543607Y485275D01*
X530556Y463676D02*
X543607Y450625D01*
X530556Y450671D02*
X543607Y463722D01*
X530556Y443487D02*
X543607Y456538D01*
X530556Y457855D02*
X543607Y470906D01*
X530556Y470861D02*
X543607Y457809D01*
X530556Y500960D02*
X543607Y514012D01*
X530556Y508145D02*
X543607Y521196D01*
X530097Y514425D02*
X543607Y500915D01*
X530017Y514790D02*
X543607Y528380D01*
X530556Y499598D02*
X543607Y486546D01*
X530556Y486592D02*
X543607Y499643D01*
X530556Y479408D02*
X543607Y492459D01*
X530556Y493776D02*
X543607Y506828D01*
X530556Y506782D02*
X543607Y493731D01*
X530556Y420571D02*
X543607Y407520D01*
X530556Y427756D02*
X543607Y414704D01*
X530556Y413387D02*
X543607Y400336D01*
X530400Y407409D02*
X543607Y420617D01*
X530268Y406490D02*
X543607Y393152D01*
X525843Y396547D02*
X543607Y378783D01*
X528583Y400991D02*
X543607Y385967D01*
X522227Y392979D02*
X543607Y371599D01*
X517731Y390291D02*
X543607Y364415D01*
X512161Y388677D02*
X543607Y357230D01*
X530556Y449308D02*
X543607Y436257D01*
X530556Y436302D02*
X543607Y449354D01*
X530556Y429118D02*
X543607Y442169D01*
X530556Y456492D02*
X543607Y443441D01*
X530556Y410000D02*
Y510000D01*
Y434940D02*
X543607Y421888D01*
X530556Y414750D02*
X543607Y427801D01*
X530556Y442124D02*
X543607Y429073D01*
X530556Y421934D02*
X543607Y434985D01*
X504795Y388858D02*
X543607Y350046D01*
X259672Y86392D02*
X543607Y370327D01*
X261436Y80972D02*
X543607Y363143D01*
X255948Y97036D02*
X543607Y384696D01*
X257810Y91714D02*
X543607Y377512D01*
X267390Y58189D02*
X543607Y334406D01*
X266055Y64038D02*
X543607Y341591D01*
X268672Y52287D02*
X543607Y327222D01*
X263043Y75394D02*
X543607Y355959D01*
X264649Y69817D02*
X543607Y348775D01*
X247304Y117129D02*
X543607Y413433D01*
X251766Y107223D02*
X543607Y399064D01*
X253870Y102143D02*
X543607Y391880D01*
X244969Y121979D02*
X511591Y388600D01*
X249639Y112280D02*
X543607Y406249D01*
X272795Y-22617D02*
X543607Y248196D01*
X273222Y-15005D02*
X543607Y255380D01*
X271908Y-30688D02*
X543607Y241012D01*
X270960Y-38820D02*
X543607Y233827D01*
X269489Y-47475D02*
X543607Y226643D01*
X265688Y-65645D02*
X543607Y212275D01*
X267813Y-56336D02*
X543607Y219459D01*
X263010Y-75507D02*
X543607Y205091D01*
X259868Y-85833D02*
X543607Y197906D01*
X256001Y-96884D02*
X543607Y190722D01*
X272303Y27181D02*
X543607Y298485D01*
X271575Y33637D02*
X543607Y305669D01*
X272908Y20602D02*
X543607Y291301D01*
X269715Y46146D02*
X543607Y320038D01*
X270758Y40005D02*
X543607Y312854D01*
X273634Y-225D02*
X543607Y269748D01*
X273634Y-7409D02*
X543607Y262564D01*
X273290Y13800D02*
X543607Y284117D01*
X273634Y6959D02*
X543607Y276933D01*
X472178Y543607D02*
X492235Y523550D01*
X464789Y521404D02*
X486992Y543607D01*
X464994D02*
X489472Y519129D01*
X460154Y523953D02*
X479808Y543607D01*
X457809D02*
X487757Y513660D01*
X493731Y543607D02*
X505993Y531345D01*
X486546Y543607D02*
X500391Y529762D01*
X479362Y543607D02*
X495872Y527097D01*
X468679Y518109D02*
X494177Y543607D01*
X471860Y514106D02*
X501361Y543607D01*
X421888D02*
X441063Y524433D01*
X414704Y543607D02*
X436235Y522076D01*
X407520Y543607D02*
X432176Y518951D01*
X400336Y543607D02*
X428826Y515117D01*
X393152Y543607D02*
X426216Y510543D01*
X454619Y525603D02*
X472624Y543607D01*
X447751Y525919D02*
X465440Y543607D01*
X437421Y522773D02*
X458256Y543607D01*
X429073D02*
X446855Y525825D01*
X436257Y543607D02*
X454187Y525677D01*
X475760Y503638D02*
X488369Y516247D01*
X364415Y543607D02*
X487444Y420578D01*
Y410000D02*
Y510000D01*
X357230Y543607D02*
X487444Y413394D01*
X350046Y543607D02*
X487858Y405796D01*
X475677Y504187D02*
X487444Y492420D01*
X475775Y496469D02*
X487444Y508138D01*
X475825Y496855D02*
X487444Y485236D01*
X470597Y484106D02*
X487444Y500954D01*
X190326Y196651D02*
X487444Y493769D01*
X450625Y543607D02*
X487444Y506788D01*
X385967Y543607D02*
X424486Y505088D01*
X443441Y543607D02*
X487444Y499604D01*
X378783Y543607D02*
X424036Y498354D01*
X371599Y543607D02*
X426623Y488583D01*
X154739Y225723D02*
X424397Y495381D01*
X146048Y231400D02*
X427227Y512579D01*
X150460Y228627D02*
X424081Y502249D01*
X35181Y271401D02*
X307387Y543607D01*
X28724Y272129D02*
X300203Y543607D01*
X41473Y270509D02*
X314571Y543607D01*
X15426Y273199D02*
X285834Y543607D01*
X22228Y272817D02*
X293019Y543607D01*
X65436Y265735D02*
X343308Y543607D01*
X59587Y267071D02*
X336124Y543607D01*
X71150Y264265D02*
X350492Y543607D01*
X47614Y269466D02*
X321755Y543607D01*
X53738Y268405D02*
X328940Y543607D01*
X-28753Y272126D02*
X242729Y543607D01*
X-36849Y271213D02*
X235545Y543607D01*
X-45406Y269841D02*
X228361Y543607D01*
X-54110Y268321D02*
X221176Y543607D01*
X-63419Y266196D02*
X213992Y543607D01*
X1493Y273634D02*
X271466Y543607D01*
X-5692Y273634D02*
X264282Y543607D01*
X8624Y273581D02*
X278650Y543607D01*
X-13185Y273325D02*
X257098Y543607D01*
X-20797Y272897D02*
X249913Y543607D01*
X113440Y249081D02*
X407966Y543607D01*
X108437Y251263D02*
X400782Y543607D01*
X118289Y246746D02*
X415150Y543607D01*
X98277Y255471D02*
X386413Y543607D01*
X103357Y253367D02*
X393598Y543607D01*
X137133Y236854D02*
X443887Y543607D01*
X132506Y239411D02*
X436703Y543607D01*
X141636Y234172D02*
X451071Y543607D01*
X123138Y244411D02*
X422335Y543607D01*
X127879Y241968D02*
X429519Y543607D01*
X-73094Y263705D02*
X206808Y543607D01*
X-83215Y260768D02*
X199624Y543607D01*
X-94242Y256925D02*
X192440Y543607D01*
X-106135Y252216D02*
X185256Y543607D01*
X-119256Y246280D02*
X178071Y543607D01*
X87665Y259227D02*
X372045Y543607D01*
X92987Y257365D02*
X379229Y543607D01*
X76728Y262658D02*
X357677Y543607D01*
X82305Y261052D02*
X364861Y543607D01*
X220472Y162139D02*
X487444Y429112D01*
X217405Y166257D02*
X487444Y436296D01*
X223454Y157937D02*
X487444Y421927D01*
X211031Y174251D02*
X487444Y450664D01*
X214218Y170254D02*
X487444Y443480D01*
X234835Y140581D02*
X491570Y397317D01*
X232062Y144993D02*
X489008Y401939D01*
X237465Y136027D02*
X495025Y393588D01*
X226436Y153735D02*
X487444Y414743D01*
X229290Y149405D02*
X487569Y407684D01*
X472076Y486235D02*
X487444Y470868D01*
X474433Y491063D02*
X487444Y478052D01*
X468951Y482176D02*
X487444Y463683D01*
X465117Y478826D02*
X487444Y456499D01*
X438583Y476623D02*
X487444Y427762D01*
X455088Y474486D02*
X487444Y442131D01*
X460543Y476216D02*
X487444Y449315D01*
X448354Y474036D02*
X487444Y434946D01*
X218822Y164465D02*
X227508Y152223D01*
X227699Y151937D02*
X235686Y139227D01*
X271073Y38095D02*
X272754Y23179D01*
X268510Y53235D02*
X271025Y38436D01*
X272782Y22836D02*
X273624Y7849D01*
X240022Y131400D02*
X499348Y390726D01*
X242579Y126773D02*
X504686Y388880D01*
X273634Y-7505D02*
Y-0D01*
Y7505D01*
X272782Y-22836D02*
X273624Y-7849D01*
X271073Y-38095D02*
X272754Y-23179D01*
X268510Y-53235D02*
X271025Y-38436D01*
X255800Y97460D02*
X260757Y83291D01*
X249932Y111649D02*
X255677Y97781D01*
X260862Y82963D02*
X265017Y68540D01*
X235860Y138931D02*
X243121Y125793D01*
X243279Y125487D02*
X249792Y111963D01*
X265103Y68206D02*
X268443Y53572D01*
X265103Y-68206D02*
X268443Y-53572D01*
X260862Y-82964D02*
X265017Y-68540D01*
X255800Y-97460D02*
X260757Y-83291D01*
X68540Y265017D02*
X82963Y260862D01*
X53572Y268443D02*
X68206Y265103D01*
X158942Y222741D02*
X426047Y489846D01*
X23179Y272754D02*
X38095Y271073D01*
X38436Y271025D02*
X53235Y268510D01*
X125793Y243121D02*
X138931Y235860D01*
X111963Y249792D02*
X125487Y243279D01*
X139227Y235686D02*
X151937Y227699D01*
X83291Y260757D02*
X97460Y255800D01*
X97781Y255677D02*
X111649Y249932D01*
X-7505Y273634D02*
X7505D01*
X-22836Y272782D02*
X-7849Y273624D01*
X7849D02*
X22836Y272782D01*
X-38095Y271073D02*
X-23179Y272754D01*
X-53235Y268510D02*
X-38436Y271025D01*
X-68206Y265103D02*
X-53572Y268443D01*
X-82964Y260862D02*
X-68540Y265017D01*
X-97460Y255800D02*
X-83291Y260757D01*
X-111649Y249932D02*
X-97781Y255677D01*
X193918Y193059D02*
X487444Y486585D01*
X193918Y193059D02*
X487444Y486585D01*
X197510Y189467D02*
X487444Y479401D01*
X175206Y210268D02*
X440657Y475719D01*
X186659Y200169D02*
X465894Y479403D01*
X204370Y181958D02*
X487444Y465033D01*
X200979Y185752D02*
X487444Y472217D01*
X207760Y178164D02*
X487444Y457848D01*
X179071Y206949D02*
X446362Y474240D01*
X182865Y203559D02*
X453531Y474225D01*
X171209Y213456D02*
X435894Y478140D01*
X167213Y216643D02*
X431891Y481321D01*
X164740Y218615D02*
X176476Y209256D01*
X163144Y219759D02*
X428596Y485211D01*
X152223Y227508D02*
X164465Y218822D01*
X199032Y187931D02*
X209034Y176739D01*
X209256Y176476D02*
X218615Y164740D01*
X176739Y209034D02*
X187931Y199032D01*
X188181Y198795D02*
X198795Y188181D01*
X271660Y32889D02*
X543607Y-239059D01*
X270560Y41172D02*
X543607Y-231875D01*
X272572Y24792D02*
X543607Y-246243D01*
X267235Y58866D02*
X543607Y-217507D01*
X269090Y49827D02*
X543607Y-224691D01*
X273634Y2177D02*
X543607Y-267796D01*
X273534Y9462D02*
X543607Y-260612D01*
X273634Y-5007D02*
X543607Y-274980D01*
X273106Y17074D02*
X543607Y-253428D01*
X273394Y-11951D02*
X543607Y-282164D01*
X244684Y-122569D02*
X543607Y176354D01*
X251002Y-109067D02*
X543607Y183538D01*
X242761Y126446D02*
X543607Y-174401D01*
X236297Y-138141D02*
X543607Y169170D01*
X233187Y143203D02*
X543607Y-167217D01*
X262220Y78249D02*
X543607Y-203138D01*
X258817Y88836D02*
X543607Y-195954D01*
X265110Y68175D02*
X543607Y-210322D01*
X249544Y112478D02*
X543607Y-181586D01*
X254701Y100136D02*
X543607Y-188770D01*
X261872Y-79456D02*
X543607Y-361191D01*
X263479Y-73878D02*
X543607Y-354007D01*
X543607Y543607D02*
X543607Y-543607D01*
X260178Y-84946D02*
X543607Y-368375D01*
X258316Y-90268D02*
X543607Y-375559D01*
X254442Y-100762D02*
X543607Y-389928D01*
X256454Y-95590D02*
X543607Y-382743D01*
X252338Y-105842D02*
X543607Y-397112D01*
X250234Y-110922D02*
X543607Y-404296D01*
X247939Y-115812D02*
X543607Y-411480D01*
X272500Y-25426D02*
X543607Y-296533D01*
X273012Y-18753D02*
X543607Y-289349D01*
X271773Y-31883D02*
X543607Y-303717D01*
X271021Y-38315D02*
X543607Y-310901D01*
X269998Y-44477D02*
X543607Y-318085D01*
X268955Y-50618D02*
X543607Y-325270D01*
X267752Y-56599D02*
X543607Y-332454D01*
X266417Y-62448D02*
X543607Y-339638D01*
X265069Y-68284D02*
X543607Y-346822D01*
X217751Y165824D02*
X543607Y-160033D01*
X-109743Y543607D02*
X543607Y-109743D01*
X-47038Y-543607D02*
X543607Y47038D01*
X-116927Y543607D02*
X543607Y-116928D01*
X-124112Y543607D02*
X543607Y-124112D01*
X-18301Y-543607D02*
X543607Y18301D01*
X-25485Y-543607D02*
X543607Y25485D01*
X-11117Y-543607D02*
X543607Y11117D01*
X-39854Y-543607D02*
X543607Y39854D01*
X-32669Y-543607D02*
X543607Y32669D01*
X-97327Y-543607D02*
X543607Y97327D01*
X222889Y-158733D02*
X543607Y161985D01*
X-90143Y-543607D02*
X543607Y90143D01*
X-111696Y-543607D02*
X543607Y111696D01*
X-104512Y-543607D02*
X543607Y104512D01*
X-61406Y-543607D02*
X543607Y61406D01*
X-68590Y-543607D02*
X543607Y68590D01*
X-54222Y-543607D02*
X543607Y54222D01*
X-82959Y-543607D02*
X543607Y82959D01*
X-75775Y-543607D02*
X543607Y75775D01*
X75094Y-543607D02*
X543607Y-75094D01*
X67909Y-543607D02*
X543607Y-67909D01*
X82278Y-543607D02*
X543607Y-82278D01*
X53541Y-543607D02*
X543607Y-53541D01*
X60725Y-543607D02*
X543607Y-60725D01*
X111015Y-543607D02*
X543607Y-111015D01*
X103831Y-543607D02*
X543607Y-103830D01*
X118199Y-543607D02*
X543607Y-118199D01*
X89462Y-543607D02*
X543607Y-89462D01*
X96646Y-543607D02*
X543607Y-96646D01*
X10436Y-543607D02*
X543607Y-10436D01*
X3252Y-543607D02*
X543607Y-3252D01*
X17620Y-543607D02*
X543607Y-17620D01*
X-118880Y-543607D02*
X543607Y118880D01*
X-3933Y-543607D02*
X543607Y3933D01*
X39173Y-543607D02*
X543607Y-39173D01*
X46357Y-543607D02*
X543607Y-46357D01*
X24804Y-543607D02*
X543607Y-24804D01*
X31988Y-543607D02*
X543607Y-31988D01*
X530556Y-434350D02*
X543607Y-447401D01*
X530556Y-447356D02*
X543607Y-434304D01*
X530556Y-454540D02*
X543607Y-441488D01*
X530556Y-440171D02*
X543607Y-427120D01*
X530556Y-427166D02*
X543607Y-440217D01*
X530556Y-468908D02*
X543607Y-455857D01*
X530556Y-448718D02*
X543607Y-461770D01*
X530556Y-455903D02*
X543607Y-468954D01*
X530556Y-441534D02*
X543607Y-454586D01*
X530556Y-461724D02*
X543607Y-448673D01*
X530556Y-411435D02*
X543607Y-398383D01*
X529937Y-404870D02*
X543607Y-391199D01*
X529976Y-405033D02*
X543607Y-418665D01*
X524944Y-395494D02*
X543607Y-376831D01*
X527931Y-399691D02*
X543607Y-384015D01*
X530556Y-432987D02*
X543607Y-419936D01*
X530556Y-412797D02*
X543607Y-425849D01*
X530556Y-419982D02*
X543607Y-433033D01*
X530556Y-418619D02*
X543607Y-405567D01*
X530556Y-425803D02*
X543607Y-412752D01*
X530556Y-499008D02*
X543607Y-512059D01*
X530556Y-491824D02*
X543607Y-504875D01*
X530556Y-506192D02*
X543607Y-519244D01*
X530452Y-512118D02*
X543607Y-498962D01*
X530325Y-513146D02*
X543607Y-526428D01*
X534883Y-543607D02*
X543607Y-534883D01*
X528714Y-518719D02*
X543607Y-533612D01*
X542067Y-543607D02*
X543607Y-542067D01*
X526028Y-523217D02*
X543607Y-540796D01*
X527699Y-543607D02*
X543607Y-527699D01*
X530556Y-470271D02*
X543607Y-483322D01*
X530556Y-483277D02*
X543607Y-470225D01*
X530556Y-490461D02*
X543607Y-477410D01*
X530556Y-476092D02*
X543607Y-463041D01*
X530556Y-463087D02*
X543607Y-476138D01*
X530556Y-484640D02*
X543607Y-497691D01*
X530556Y-504829D02*
X543607Y-491778D01*
X530556Y-477455D02*
X543607Y-490507D01*
X530556Y-497645D02*
X543607Y-484594D01*
X218778Y-543607D02*
X543607Y-218778D01*
X211594Y-543607D02*
X543607Y-211594D01*
X225962Y-543607D02*
X543607Y-225962D01*
X125383Y-543607D02*
X543607Y-125383D01*
X204410Y-543607D02*
X543607Y-204410D01*
X521096Y-392158D02*
X543607Y-369646D01*
X516338Y-389731D02*
X543607Y-362462D01*
X247515Y-543607D02*
X543607Y-247515D01*
X233146Y-543607D02*
X543607Y-233146D01*
X240331Y-543607D02*
X543607Y-240331D01*
X175673Y-543607D02*
X543607Y-175673D01*
X168489Y-543607D02*
X543607Y-168488D01*
X182857Y-543607D02*
X543607Y-182857D01*
X154120Y-543607D02*
X543607Y-154120D01*
X161304Y-543607D02*
X543607Y-161304D01*
X510396Y-388489D02*
X543607Y-355278D01*
X502135Y-389566D02*
X543607Y-348094D01*
X190041Y-543607D02*
X543607Y-190041D01*
X197225Y-543607D02*
X543607Y-197225D01*
X254699Y-543607D02*
X543607Y-254699D01*
X146936Y-543607D02*
X543607Y-146936D01*
X326541Y-543607D02*
X543607Y-326541D01*
X132567Y-543607D02*
X543607Y-132567D01*
X139752Y-543607D02*
X543607Y-139752D01*
X513331Y-543607D02*
X543607Y-513331D01*
X506147Y-543607D02*
X543607Y-506146D01*
X520515Y-543607D02*
X543607Y-520515D01*
X333725Y-543607D02*
X543607Y-333725D01*
X340910Y-543607D02*
X543607Y-340910D01*
X283436Y-543607D02*
X543607Y-283436D01*
X276252Y-543607D02*
X543607Y-276252D01*
X290620Y-543607D02*
X543607Y-290620D01*
X261883Y-543607D02*
X543607Y-261883D01*
X269067Y-543607D02*
X543607Y-269067D01*
X312173Y-543607D02*
X543607Y-312173D01*
X319357Y-543607D02*
X543607Y-319357D01*
X297804Y-543607D02*
X543607Y-297804D01*
X304988Y-543607D02*
X543607Y-304988D01*
X243265Y-125506D02*
X506364Y-388606D01*
X249932Y-111649D02*
X255677Y-97781D01*
X245604Y-120661D02*
X513967Y-389024D01*
X240717Y-130143D02*
X500686Y-390112D01*
X238160Y-134770D02*
X496112Y-392721D01*
X235588Y-139382D02*
X492425Y-396219D01*
X232816Y-143794D02*
X489608Y-400586D01*
X230044Y-148206D02*
X487821Y-405984D01*
X227246Y-152593D02*
X487444Y-412791D01*
X224264Y-156795D02*
X487444Y-419975D01*
X243279Y-125487D02*
X249792Y-111963D01*
X235860Y-138931D02*
X243121Y-125793D01*
X227699Y-151937D02*
X235686Y-139227D01*
X218822Y-164465D02*
X227508Y-152223D01*
X209256Y-176476D02*
X218615Y-164740D01*
X199032Y-187931D02*
X209034Y-176739D01*
X188181Y-198795D02*
X198795Y-188181D01*
X176739Y-209034D02*
X187931Y-199032D01*
X164740Y-218615D02*
X176476Y-209256D01*
X152223Y-227508D02*
X164465Y-218822D01*
X215084Y-169168D02*
X487444Y-441527D01*
X218272Y-165171D02*
X487444Y-434343D01*
X211897Y-173165D02*
X487444Y-448712D01*
X208681Y-177133D02*
X487444Y-455896D01*
X205291Y-180927D02*
X487444Y-463080D01*
X198486Y-188491D02*
X487444Y-477449D01*
X201901Y-184721D02*
X487444Y-470264D01*
X194894Y-192083D02*
X487444Y-484633D01*
X191302Y-195675D02*
X487444Y-491817D01*
X187691Y-199247D02*
X487444Y-499000D01*
X221282Y-160997D02*
X487444Y-427159D01*
X180103Y-206028D02*
X448127Y-474052D01*
X183897Y-202637D02*
X455928Y-474668D01*
X176293Y-209402D02*
X442103Y-475212D01*
X172296Y-212589D02*
X437109Y-477402D01*
X168299Y-215777D02*
X432909Y-480386D01*
X164287Y-218948D02*
X429422Y-484083D01*
X160085Y-221930D02*
X426661Y-488506D01*
X155882Y-224912D02*
X424741Y-493771D01*
X151660Y-227874D02*
X423985Y-500199D01*
X139227Y-235686D02*
X151937Y-227699D01*
X147248Y-230646D02*
X425584Y-508982D01*
X125793Y-243121D02*
X138931Y-235860D01*
X111963Y-249792D02*
X125487Y-243279D01*
X-70350Y-264496D02*
X208762Y-543607D01*
X-80441Y-261588D02*
X201577Y-543607D01*
X-60888Y-266774D02*
X215946Y-543607D01*
X-102800Y-253598D02*
X187209Y-543607D01*
X-91237Y-257977D02*
X194393Y-543607D01*
X97781Y-255677D02*
X111649Y-249933D01*
X83291Y-260757D02*
X97460Y-255800D01*
X-82964Y-260862D02*
X-68540Y-265017D01*
X-111649Y-249933D02*
X-97781Y-255677D01*
X-97460Y-255800D02*
X-83291Y-260757D01*
X68540Y-265017D02*
X82963Y-260862D01*
X53572Y-268443D02*
X68206Y-265103D01*
X-68206D02*
X-53572Y-268443D01*
X-53235Y-268510D02*
X-38436Y-271025D01*
X138392Y-236158D02*
X445841Y-543607D01*
X133765Y-238715D02*
X438657Y-543607D01*
X142836Y-233418D02*
X453025Y-543607D01*
X124456Y-243776D02*
X424288Y-543607D01*
X129138Y-241273D02*
X431472Y-543607D01*
X114758Y-248446D02*
X409920Y-543607D01*
X109819Y-250691D02*
X402735Y-543607D01*
X119607Y-246111D02*
X417104Y-543607D01*
X99659Y-254899D02*
X388367Y-543607D01*
X104739Y-252795D02*
X395551Y-543607D01*
X89112Y-258721D02*
X373999Y-543607D01*
X83790Y-260583D02*
X366814Y-543607D01*
X94434Y-256858D02*
X381183Y-543607D01*
X-115488Y-248095D02*
X180025Y-543607D01*
X78244Y-262221D02*
X359630Y-543607D01*
X67027Y-265372D02*
X345262Y-543607D01*
X72667Y-263828D02*
X352446Y-543607D01*
X55328Y-268043D02*
X330893Y-543607D01*
X61178Y-266707D02*
X338078Y-543607D01*
X530556Y-510000D02*
Y-410000D01*
X487444Y-510000D02*
Y-410000D01*
X473069Y-512026D02*
X487444Y-497652D01*
X475948Y-501873D02*
X487761Y-513686D01*
X463950Y-478040D02*
X487444Y-454547D01*
X459157Y-475649D02*
X487444Y-447362D01*
X467979Y-481196D02*
X487444Y-461731D01*
X453413Y-474209D02*
X487444Y-440178D01*
X446171Y-474267D02*
X487444Y-432994D01*
X475941Y-501970D02*
X487444Y-490468D01*
X475563Y-495165D02*
X487444Y-483283D01*
X475332Y-494072D02*
X487444Y-506184D01*
X471299Y-485060D02*
X487444Y-468915D01*
X473876Y-489667D02*
X487444Y-476099D01*
X474789Y-507897D02*
X510499Y-543607D01*
X484594D02*
X499069Y-529132D01*
X522462Y-526835D02*
X539234Y-543607D01*
X469614Y-517091D02*
X496130Y-543607D01*
X472598Y-512891D02*
X503314Y-543607D01*
X512525Y-531266D02*
X524867Y-543607D01*
X505314Y-531239D02*
X517683Y-543607D01*
X518021Y-529577D02*
X532051Y-543607D01*
X491778D02*
X504339Y-531046D01*
X498962Y-543607D02*
X511118Y-531452D01*
X465917Y-520578D02*
X488946Y-543607D01*
X463041D02*
X488889Y-517760D01*
X470225Y-543607D02*
X491395Y-522438D01*
X448673Y-543607D02*
X487444Y-504836D01*
X455857Y-543607D02*
X487531Y-511933D01*
X461494Y-523339D02*
X481762Y-543607D01*
X477410D02*
X494799Y-526217D01*
X449801Y-526015D02*
X467393Y-543607D01*
X456229Y-525259D02*
X474577Y-543607D01*
X30480Y-271931D02*
X302156Y-543607D01*
X24023Y-272659D02*
X294972Y-543607D01*
X36937Y-271203D02*
X309341Y-543607D01*
X-11115Y-273441D02*
X259051Y-543607D01*
X17276Y-273095D02*
X287788Y-543607D01*
X432545Y-480709D02*
X487444Y-425810D01*
X10473Y-273477D02*
X280604Y-543607D01*
X-3738Y-273634D02*
X266235Y-543607D01*
X3446Y-273634D02*
X273420Y-543607D01*
X38436Y-271025D02*
X53235Y-268510D01*
X23179Y-272754D02*
X38095Y-271073D01*
X-26551Y-272374D02*
X244683Y-543607D01*
X-38095Y-271073D02*
X-23179Y-272754D01*
X-51707Y-268770D02*
X223130Y-543607D01*
X7849Y-273624D02*
X22836Y-272783D01*
X-7505Y-273634D02*
X7505D01*
X-22836Y-272783D02*
X-7849Y-273624D01*
X-18727Y-273013D02*
X251867Y-543607D01*
X362462D02*
X487444Y-418625D01*
X405568Y-543607D02*
X431196Y-517979D01*
X412752Y-543607D02*
X435060Y-521299D01*
X348094Y-543607D02*
X488567Y-403135D01*
X355278Y-543607D02*
X487444Y-411441D01*
X441018Y-524416D02*
X460209Y-543607D01*
X434304D02*
X451970Y-525941D01*
X441489Y-543607D02*
X462026Y-523069D01*
X419936Y-543607D02*
X439667Y-523876D01*
X427120Y-543607D02*
X445165Y-525563D01*
X49284Y-269182D02*
X323709Y-543607D01*
X43143Y-270225D02*
X316525Y-543607D01*
X369646D02*
X430709Y-482545D01*
X-43052Y-270240D02*
X230314Y-543607D01*
X-34647Y-271462D02*
X237498Y-543607D01*
X391199D02*
X425649Y-509157D01*
X398383Y-543607D02*
X428040Y-513950D01*
X376831Y-543607D02*
X424267Y-496171D01*
X384015Y-543607D02*
X424209Y-503413D01*
X-224691Y543607D02*
X49827Y269090D01*
X-231875Y543607D02*
X41172Y270560D01*
X-217507Y543607D02*
X58866Y267235D01*
X-246243Y543607D02*
X24792Y272572D01*
X-239059Y543607D02*
X32889Y271660D01*
X-188770Y543607D02*
X100136Y254701D01*
X-195954Y543607D02*
X88836Y258817D01*
X-181585Y543607D02*
X112478Y249544D01*
X-210322Y543607D02*
X68175Y265110D01*
X-203138Y543607D02*
X78249Y262220D01*
X-289349Y543607D02*
X-18753Y273012D01*
X-296533Y543607D02*
X-25426Y272500D01*
X-303717Y543607D02*
X-31883Y271773D01*
X-339638Y543607D02*
X-62448Y266417D01*
X-418664Y543607D02*
X-120661Y245604D01*
X-260612Y543607D02*
X9462Y273534D01*
X-267796Y543607D02*
X2177Y273634D01*
X-253428Y543607D02*
X17074Y273106D01*
X-274980Y543607D02*
X-5007Y273634D01*
X-282164Y543607D02*
X-11951Y273394D01*
X-167217Y543607D02*
X143203Y233187D01*
X-174401Y543607D02*
X126446Y242761D01*
X-543607Y-127782D02*
X127782Y543607D01*
X-543607Y-91861D02*
X91861Y543607D01*
X-543607Y-120597D02*
X120597Y543607D01*
X-131296D02*
X543607Y-131296D01*
X-134302Y238419D02*
X170887Y543607D01*
X-138480D02*
X543607Y-138480D01*
X-152820Y227085D02*
X163703Y543607D01*
X-160033D02*
X165824Y217751D01*
X-425849Y543607D02*
X-125506Y243265D01*
X-433033Y543607D02*
X-130143Y240717D01*
X-440217Y543607D02*
X-134770Y238160D01*
X-447401Y543607D02*
X-139382Y235588D01*
X-454585Y543607D02*
X-143794Y232816D01*
X-543607Y-63124D02*
X63124Y543607D01*
X-543607Y-84676D02*
X84677Y543607D01*
X-543607Y-48755D02*
X48755Y543607D01*
X-543607Y-55940D02*
X55940Y543607D01*
X-543607Y159587D02*
X-159587Y543607D01*
X-543607Y166771D02*
X-166771Y543607D01*
X-543607Y152402D02*
X-152402Y543607D01*
X-543607Y181139D02*
X-181139Y543607D01*
X-543607Y173955D02*
X-173955Y543607D01*
X-543607Y130850D02*
X-130850Y543607D01*
X-543607Y138034D02*
X-138034Y543607D01*
X-543607Y123666D02*
X-123666Y543607D01*
X-543607D02*
X543607D01*
X-543607Y145218D02*
X-145218Y543607D01*
X-543607Y231429D02*
X-231429Y543607D01*
X-543607Y238613D02*
X-238613Y543607D01*
X-543607Y224245D02*
X-224245Y543607D01*
X-543607Y252981D02*
X-252981Y543607D01*
X-543607Y245797D02*
X-245797Y543607D01*
X-543607Y195508D02*
X-195508Y543607D01*
X-543607Y202692D02*
X-202692Y543607D01*
X-543607Y188324D02*
X-188324Y543607D01*
X-543607Y217060D02*
X-217060Y543607D01*
X-543607Y209876D02*
X-209876Y543607D01*
X-543607Y-41571D02*
X41571Y543607D01*
X-543607Y-34387D02*
X34387Y543607D01*
X-543607Y-70308D02*
X70308Y543607D01*
X-543607Y-20018D02*
X20019Y543607D01*
X-543607Y-27203D02*
X27203Y543607D01*
X-543607Y-113413D02*
X113413Y543607D01*
X-543607Y-106229D02*
X106229Y543607D01*
X-543607Y-134966D02*
X134966Y543607D01*
X-543607Y-77492D02*
X77492Y543607D01*
X-543607Y-99045D02*
X99045Y543607D01*
X-543607Y23087D02*
X-23087Y543607D01*
X-543607Y30271D02*
X-30271Y543607D01*
X-543607Y15903D02*
X-15903Y543607D01*
X-543607Y116482D02*
X-116482Y543607D01*
X-543607Y37455D02*
X-37455Y543607D01*
X-543607Y-5650D02*
X5650Y543607D01*
X-543607Y-12834D02*
X12834Y543607D01*
X-543607Y8718D02*
X-8718Y543607D01*
X-543607Y1534D02*
X-1534Y543607D01*
X-354007D02*
X-73878Y263479D01*
X-361191Y543607D02*
X-79456Y261872D01*
X-368375Y543607D02*
X-84946Y260178D01*
X-375559Y543607D02*
X-90268Y258316D01*
X-382743Y543607D02*
X-95590Y256454D01*
X-310901Y543607D02*
X-38315Y271021D01*
X-318085Y543607D02*
X-44477Y269998D01*
X-325270Y543607D02*
X-50618Y268955D01*
X-332454Y543607D02*
X-56599Y267752D01*
X-346822Y543607D02*
X-68284Y265069D01*
X-389928Y543607D02*
X-100762Y254442D01*
X-397112Y543607D02*
X-105842Y252338D01*
X-404296Y543607D02*
X-110922Y250234D01*
X-411480Y543607D02*
X-115812Y247939D01*
X-424861Y506699D02*
X-148206Y230044D01*
X-125487Y243279D02*
X-111963Y249792D01*
X-138931Y235860D02*
X-125793Y243121D01*
X-151937Y227699D02*
X-139227Y235686D01*
X-424018Y498671D02*
X-152593Y227246D01*
X-425075Y492544D02*
X-156795Y224264D01*
X-427195Y487480D02*
X-160997Y221282D01*
X-430119Y483220D02*
X-165171Y218272D01*
X-433759Y479676D02*
X-169168Y215084D01*
X-438122Y476854D02*
X-173165Y211897D01*
X-443311Y474859D02*
X-177133Y208681D01*
X-164465Y218822D02*
X-152223Y227508D01*
X-176476Y209256D02*
X-164740Y218615D01*
X-187931Y199032D02*
X-176739Y209034D01*
X-449623Y473987D02*
X-180927Y205291D01*
X-198795Y188181D02*
X-188181Y198795D01*
X-209034Y176739D02*
X-199032Y187931D01*
X-218615Y164740D02*
X-209256Y176476D01*
X-227508Y152223D02*
X-218822Y164465D01*
X-235686Y139227D02*
X-227699Y151937D01*
X-243121Y125793D02*
X-235860Y138931D01*
X-249792Y111963D02*
X-243279Y125487D01*
X-249792Y-111963D02*
X-243279Y-125487D01*
X-255677Y97781D02*
X-249933Y111649D01*
X-255677Y-97781D02*
X-249933Y-111649D01*
X-458096Y475276D02*
X-184721Y201901D01*
X-487444Y483071D02*
X-195675Y191302D01*
X-487444Y475888D02*
X-199247Y187691D01*
X-487444Y497439D02*
X-188491Y198486D01*
X-487444Y490255D02*
X-192083Y194894D01*
X-487444Y454335D02*
X-209402Y176293D01*
X-487444Y447151D02*
X-212589Y172296D01*
X-487444Y439967D02*
X-215777Y168299D01*
X-487444Y468704D02*
X-202637Y183897D01*
X-487444Y461520D02*
X-206028Y180103D01*
X-487444Y425598D02*
X-221930Y160085D01*
X-487444Y418414D02*
X-224912Y155882D01*
X-487444Y411230D02*
X-227874Y151660D01*
X-487444Y432783D02*
X-218948Y164287D01*
X-488104Y404706D02*
X-230646Y147248D01*
X-490141Y399559D02*
X-233418Y142836D01*
X-493153Y395387D02*
X-236158Y138392D01*
X-497026Y392075D02*
X-238715Y133765D01*
X-501813Y389678D02*
X-241273Y129138D01*
X-543607Y87745D02*
X-87745Y543607D01*
X-543607Y94929D02*
X-94929Y543607D01*
X-543607Y80560D02*
X-80560Y543607D01*
X-543607Y109297D02*
X-109297Y543607D01*
X-543607Y102113D02*
X-102113Y543607D01*
X-543607Y51824D02*
X-51824Y543607D01*
X-543607Y59008D02*
X-59008Y543607D01*
X-543607Y44639D02*
X-44639Y543607D01*
X-543607Y73376D02*
X-73376Y543607D01*
X-543607Y66192D02*
X-66192Y543607D01*
X-507797Y388478D02*
X-243776Y124456D01*
X-516177Y389674D02*
X-246111Y119607D01*
X-543607Y395551D02*
X-252795Y104739D01*
X-543607Y409920D02*
X-248446Y114758D01*
X-543607Y402735D02*
X-250691Y109819D01*
X-543607Y180025D02*
X-248095Y-115488D01*
X-543607Y172841D02*
X-240833Y-129934D01*
X-543607Y388367D02*
X-254899Y99659D01*
X-543607Y187209D02*
X-253598Y-102800D01*
X-450179Y526015D02*
X-432587Y543607D01*
X-461770D02*
X-443301Y525139D01*
X-458950Y524428D02*
X-439771Y543607D01*
X-468954D02*
X-451329Y525982D01*
X-476138Y543607D02*
X-457456Y524925D01*
X-430377Y517081D02*
X-403850Y543607D01*
X-434072Y520570D02*
X-411034Y543607D01*
X-427395Y512878D02*
X-396666Y543607D01*
X-443755Y525255D02*
X-425403Y543607D01*
X-438493Y523333D02*
X-418218Y543607D01*
X-497966Y528518D02*
X-482876Y543607D01*
X-502972Y530696D02*
X-490061Y543607D01*
X-493908Y525391D02*
X-475692Y543607D01*
X-509298Y531554D02*
X-497245Y543607D01*
X-504875D02*
X-473146Y511878D01*
X-483322Y543607D02*
X-462520Y522805D01*
X-490507Y543607D02*
X-466780Y519881D01*
X-488443Y516488D02*
X-461324Y543607D01*
X-490709Y521406D02*
X-468508Y543607D01*
X-497691D02*
X-470324Y516241D01*
X-424050Y501854D02*
X-382297Y543607D01*
X-425207Y507882D02*
X-389482Y543607D01*
X-424674Y494046D02*
X-375113Y543607D01*
X-487446Y510301D02*
X-454139Y543607D01*
X-487444Y503119D02*
X-446955Y543607D01*
X-487444Y424092D02*
X-367929Y543607D01*
X-487444Y416908D02*
X-360745Y543607D01*
X-487446Y409722D02*
X-353560Y543607D01*
X-489818Y400165D02*
X-346376Y543607D01*
X-487444Y495934D02*
X-474428Y508950D01*
X-487444Y504624D02*
X-474724Y491904D01*
X-487444Y410000D02*
Y510000D01*
X-487527Y511891D02*
X-476013Y500377D01*
X-487444Y474382D02*
X-473333Y488493D01*
X-487444Y467197D02*
X-470570Y484072D01*
X-487444Y488750D02*
X-476015Y500179D01*
X-487444Y481566D02*
X-475255Y493755D01*
X-526428Y543607D02*
X-513829Y531008D01*
X-533612Y543607D02*
X-519066Y529062D01*
X-540796Y543607D02*
X-523310Y526121D01*
X-543607Y525981D02*
X-525981Y543607D01*
X-543607Y518797D02*
X-518797Y543607D01*
X-518875Y529161D02*
X-504429Y543607D01*
X-519243D02*
X-507109Y531473D01*
X-512059Y543607D02*
X-475141Y506689D01*
X-543607Y511613D02*
X-511613Y543607D01*
X-543607Y539234D02*
X-526690Y522317D01*
X-543607Y532051D02*
X-529168Y517611D01*
X-543607Y524867D02*
X-530485Y511745D01*
X-543607Y540350D02*
X-540350Y543607D01*
X-543607Y533166D02*
X-533166Y543607D01*
X-543607Y497245D02*
X-530554Y510298D01*
X-543607Y510499D02*
X-530556Y497447D01*
X-543607Y503314D02*
X-530556Y490263D01*
X-543607Y517683D02*
X-530556Y504632D01*
X-543607Y504429D02*
X-528161Y519875D01*
X-543607Y303271D02*
X-303271Y543607D01*
X-543607Y310455D02*
X-310455Y543607D01*
X-543607Y296087D02*
X-296087Y543607D01*
X-543607Y324824D02*
X-324824Y543607D01*
X-543607Y317639D02*
X-317639Y543607D01*
X-543607Y267350D02*
X-267350Y543607D01*
X-543607Y274534D02*
X-274534Y543607D01*
X-543607Y260166D02*
X-260166Y543607D01*
X-543607Y288903D02*
X-288902Y543607D01*
X-543607Y281718D02*
X-281718Y543607D01*
X-543607Y339192D02*
X-339192Y543607D01*
X-530556Y410000D02*
Y510000D01*
X-543607Y332008D02*
X-332008Y543607D01*
X-543607Y490061D02*
X-530556Y503112D01*
X-543607Y496130D02*
X-530556Y483079D01*
X-543607Y475692D02*
X-530556Y488743D01*
X-543607Y481762D02*
X-530556Y468711D01*
X-543607Y482876D02*
X-530556Y495928D01*
X-543607Y488946D02*
X-530556Y475895D01*
X-543607Y338078D02*
X-266707Y61178D01*
X-543607Y330893D02*
X-268043Y55328D01*
X-543607Y323709D02*
X-269182Y49284D01*
X-543607Y352446D02*
X-263828Y72667D01*
X-543607Y345262D02*
X-265372Y67027D01*
X-260757Y83291D02*
X-255800Y97460D01*
X-265017Y68540D02*
X-260862Y82963D01*
X-268443Y53572D02*
X-265103Y68206D01*
X-543607Y316525D02*
X-270225Y43143D01*
X-271025Y38436D02*
X-268510Y53235D01*
X-487444Y438461D02*
X-451854Y474050D01*
X-487444Y445645D02*
X-457882Y475207D01*
X-487444Y431276D02*
X-444046Y474674D01*
X-487444Y460013D02*
X-467081Y480377D01*
X-487444Y452829D02*
X-462878Y477395D01*
X-543607Y309341D02*
X-271203Y36937D01*
X-543607Y201577D02*
X-261588Y-80441D01*
X-543607Y208762D02*
X-264496Y-70350D01*
X-543607Y194393D02*
X-257977Y-91237D01*
X-543607Y223130D02*
X-268770Y-51707D01*
X-543607Y215946D02*
X-266774Y-60888D01*
X-265017Y-68540D02*
X-260862Y-82964D01*
X-268443Y-53572D02*
X-265103Y-68206D01*
X-260757Y-83291D02*
X-255800Y-97460D01*
X-272754Y-23179D02*
X-271073Y-38095D01*
X-271025Y-38436D02*
X-268510Y-53235D01*
X-272754Y23179D02*
X-271073Y38095D01*
X-543607Y287788D02*
X-273095Y17276D01*
X-543607Y280604D02*
X-273477Y10473D01*
X-543607Y302156D02*
X-271931Y30480D01*
X-543607Y294972D02*
X-272659Y24023D01*
X-273624Y7849D02*
X-272783Y22836D01*
X-273624Y-7849D02*
X-272783Y-22836D01*
X-273634Y0D02*
Y7505D01*
Y-7505D02*
Y0D01*
X-543607Y425403D02*
X-530556Y438454D01*
X-543607Y438657D02*
X-530556Y425605D01*
X-543607Y431472D02*
X-530556Y418421D01*
X-543607Y445841D02*
X-530556Y432789D01*
X-543607Y432587D02*
X-530556Y445638D01*
X-543607Y403850D02*
X-530556Y416901D01*
X-543607Y411034D02*
X-530556Y424085D01*
X-543607Y417104D02*
X-529326Y402822D01*
X-543607Y418218D02*
X-530556Y431270D01*
X-543607Y424288D02*
X-530556Y411237D01*
X-543607Y467393D02*
X-530556Y454342D01*
X-543607Y461324D02*
X-530556Y474375D01*
X-543607Y454139D02*
X-530556Y467191D01*
X-543607Y468508D02*
X-530556Y481559D01*
X-543607Y474577D02*
X-530556Y461526D01*
X-543607Y453025D02*
X-530556Y439974D01*
X-543607Y439771D02*
X-530556Y452822D01*
X-543607Y460209D02*
X-530556Y447158D01*
X-543607Y446955D02*
X-530556Y460006D01*
X-543607Y366814D02*
X-260583Y83790D01*
X-543607Y359630D02*
X-262221Y78244D01*
X-543607Y266235D02*
X-273634Y-3738D01*
X-543607Y381183D02*
X-256858Y94434D01*
X-543607Y373999D02*
X-258721Y89112D01*
X-543607Y237498D02*
X-271462Y-34647D01*
X-543607Y244683D02*
X-272374Y-26551D01*
X-543607Y230314D02*
X-270240Y-43052D01*
X-543607Y259051D02*
X-273441Y-11115D01*
X-543607Y251867D02*
X-273013Y-18727D01*
X-543607Y375113D02*
X-524102Y394618D01*
X-543607Y382297D02*
X-527299Y398606D01*
X-543607Y367929D02*
X-520047Y391490D01*
X-543607Y396666D02*
X-530554Y409719D01*
X-543607Y389482D02*
X-529561Y403527D01*
X-543607Y353560D02*
X-508722Y388446D01*
X-543607Y273420D02*
X-273634Y3446D01*
X-543607Y360745D02*
X-515043Y389309D01*
X-543607Y346376D02*
X-499165Y390818D01*
X-152849Y543607D02*
X543607Y-152849D01*
X-145664Y543607D02*
X543607Y-145664D01*
X-218615Y-164740D02*
X-209256Y-176476D01*
X-227508Y-152223D02*
X-218822Y-164465D01*
X-543607Y-28317D02*
X-28317Y-543607D01*
X-209034Y-176739D02*
X-199032Y-187931D01*
X-487444Y-452382D02*
X-210268Y-175206D01*
X-487444Y-459566D02*
X-206950Y-179071D01*
X-487444Y-438013D02*
X-216643Y-167213D01*
X-487444Y-445197D02*
X-213456Y-171209D01*
X-235686Y-139227D02*
X-227699Y-151937D01*
X-243121Y-125793D02*
X-235860Y-138931D01*
X-490872Y-398336D02*
X-234172Y-141636D01*
X-498231Y-391327D02*
X-239411Y-132506D01*
X-494122Y-394402D02*
X-236854Y-137133D01*
X-487444Y-423645D02*
X-222741Y-158942D01*
X-487444Y-416461D02*
X-225723Y-154739D01*
X-487444Y-430829D02*
X-219759Y-163144D01*
X-488546Y-403195D02*
X-231400Y-146048D01*
X-487456Y-409288D02*
X-228627Y-150460D01*
X-133248Y-543607D02*
X543607Y133249D01*
X-140433Y-543607D02*
X543607Y140433D01*
X-126064Y-543607D02*
X543607Y126064D01*
X-154801Y-543607D02*
X543607Y154801D01*
X-147617Y-543607D02*
X543607Y147617D01*
X-543607Y-49870D02*
X-49870Y-543607D01*
X-543607Y-57054D02*
X-57054Y-543607D01*
X-543607Y-64238D02*
X-64238Y-543607D01*
X-543607Y-35502D02*
X-35501Y-543607D01*
X-543607Y-42686D02*
X-42686Y-543607D01*
X-543607Y-85791D02*
X-85791Y-543607D01*
X-543607Y-92975D02*
X-92975Y-543607D01*
X-543607Y-100160D02*
X-100159Y-543607D01*
X-543607Y-71423D02*
X-71423Y-543607D01*
X-543607Y-78607D02*
X-78607Y-543607D01*
X-543607Y-121712D02*
X-121712Y-543607D01*
X-543607Y-128896D02*
X-128896Y-543607D01*
X-543607Y-107344D02*
X-107344Y-543607D01*
X-543607Y-114528D02*
X-114528Y-543607D01*
X-543607Y-149334D02*
X149334Y543607D01*
X-543607Y-142150D02*
X142150Y543607D01*
X-543607Y-156519D02*
X156519Y543607D01*
X-543607Y144104D02*
X144104Y-543607D01*
X-543607Y136919D02*
X136920Y-543607D01*
X-543607Y115367D02*
X115367Y-543607D01*
X-543607Y50709D02*
X50709Y-543607D01*
X-543607Y43525D02*
X43525Y-543607D01*
X-543607Y129735D02*
X129735Y-543607D01*
X-543607Y122551D02*
X122551Y-543607D01*
X-543607Y-163703D02*
X-227085Y152820D01*
X-543607Y-170887D02*
X-238419Y134302D01*
X-543607Y36341D02*
X36341Y-543607D01*
X-543607Y165656D02*
X-230549Y-147402D01*
X-543607Y158472D02*
X-211606Y-173529D01*
X-543607Y14788D02*
X14788Y-543607D01*
X-543607Y7604D02*
X7604Y-543607D01*
X-543607Y419D02*
X419Y-543607D01*
X-543607Y29156D02*
X29156Y-543607D01*
X-543607Y21972D02*
X21972Y-543607D01*
X-543607Y100998D02*
X100998Y-543607D01*
X-543607Y93814D02*
X93814Y-543607D01*
X-543607Y86630D02*
X86630Y-543607D01*
X-543607Y151288D02*
X151288Y-543607D01*
X-543607Y108183D02*
X108183Y-543607D01*
X-543607Y65077D02*
X65077Y-543607D01*
X-543607Y57893D02*
X57893Y-543607D01*
X-543607Y-6765D02*
X-6765Y-543607D01*
X-543607Y79446D02*
X79446Y-543607D01*
X-543607Y72262D02*
X72262Y-543607D01*
X-543607Y-136081D02*
X-136081Y-543607D01*
X-543607Y-143265D02*
X-143265Y-543607D01*
X-543607Y-150449D02*
X-150449Y-543607D01*
X-543607Y-13949D02*
X-13949Y-543607D01*
X-543607Y-21133D02*
X-21133Y-543607D01*
X-543607Y-172002D02*
X-172002Y-543607D01*
X-543607Y-179186D02*
X-179186Y-543607D01*
X-543607Y-157633D02*
X-157633Y-543607D01*
X-543607Y-164817D02*
X-164817Y-543607D01*
X-241012D02*
X30688Y-271908D01*
X-248196Y-543607D02*
X22617Y-272795D01*
X-233827Y-543607D02*
X38820Y-270960D01*
X-298485Y-543607D02*
X-27181Y-272303D01*
X-291301Y-543607D02*
X-20602Y-272908D01*
X-262564Y-543607D02*
X7409Y-273634D01*
X-269748Y-543607D02*
X225Y-273634D01*
X-255380Y-543607D02*
X15005Y-273222D01*
X-284117Y-543607D02*
X-13800Y-273290D01*
X-276933Y-543607D02*
X-6959Y-273634D01*
X-164465Y-218822D02*
X-152223Y-227508D01*
X-176476Y-209256D02*
X-164740Y-218615D01*
X-151937Y-227699D02*
X-139227Y-235686D01*
X-198795Y-188181D02*
X-188181Y-198795D01*
X-187931Y-199032D02*
X-176739Y-209034D01*
X-125487Y-243279D02*
X-111963Y-249792D01*
X-138931Y-235860D02*
X-125793Y-243121D01*
X-305669Y-543607D02*
X-33637Y-271575D01*
X-363143Y-543607D02*
X-80972Y-261436D01*
X-312854Y-543607D02*
X-40005Y-270758D01*
X-147402Y-230549D02*
X165656Y-543607D01*
X-161985D02*
X158733Y-222889D01*
X-129934Y-240833D02*
X172841Y-543607D01*
X-173529Y-211606D02*
X158472Y-543607D01*
X-169170D02*
X138141Y-236297D01*
X-183538Y-543607D02*
X109067Y-251002D01*
X-190722Y-543607D02*
X96884Y-256001D01*
X-176354Y-543607D02*
X122569Y-244685D01*
X-205091Y-543607D02*
X75507Y-263010D01*
X-197906Y-543607D02*
X85833Y-259868D01*
X-334406Y-543607D02*
X-58189Y-267390D01*
X-341591Y-543607D02*
X-64038Y-266055D01*
X-212275Y-543607D02*
X65645Y-265688D01*
X-355959Y-543607D02*
X-75394Y-263043D01*
X-348775Y-543607D02*
X-69817Y-264649D01*
X-226643Y-543607D02*
X47475Y-269489D01*
X-219459Y-543607D02*
X56336Y-267813D01*
X-327222Y-543607D02*
X-52287Y-268672D01*
X-320038Y-543607D02*
X-46146Y-269715D01*
X-427916Y-486248D02*
X-162140Y-220472D01*
X-431039Y-482187D02*
X-166257Y-217405D01*
X-425562Y-491078D02*
X-157937Y-223454D01*
X-439443Y-476222D02*
X-174251Y-211031D01*
X-434871Y-478835D02*
X-170254Y-214218D01*
X-424327Y-504212D02*
X-149405Y-229290D01*
X-424173Y-496874D02*
X-153735Y-226436D01*
X-449354Y-543607D02*
X-140581Y-234835D01*
X-543607Y-543607D02*
X543607D01*
X-456538D02*
X-144993Y-232062D01*
X-487444Y-488303D02*
X-193059Y-193918D01*
X-487444Y-481119D02*
X-196651Y-190326D01*
X-487444Y-488303D02*
X-193059Y-193918D01*
X-487444Y-466750D02*
X-203559Y-182865D01*
X-487444Y-473934D02*
X-200169Y-186659D01*
X-451623Y-474035D02*
X-181958Y-204370D01*
X-444894Y-474490D02*
X-178164Y-207760D01*
X-461376Y-476603D02*
X-185752Y-200979D01*
X-487444Y-495487D02*
X-189467Y-197510D01*
X-413433Y-543607D02*
X-117129Y-247304D01*
X-420617Y-543607D02*
X-121979Y-244969D01*
X-406249Y-543607D02*
X-112280Y-249639D01*
X-434985Y-543607D02*
X-131400Y-240022D01*
X-427801Y-543607D02*
X-126773Y-242579D01*
X-377512Y-543607D02*
X-91714Y-257810D01*
X-384696Y-543607D02*
X-97036Y-255948D01*
X-370327Y-543607D02*
X-86392Y-259672D01*
X-399064Y-543607D02*
X-107223Y-251766D01*
X-391880Y-543607D02*
X-102143Y-253870D01*
X-543607Y-200739D02*
X-200738Y-543607D01*
X-543607Y-207923D02*
X-207923Y-543607D01*
X-543607Y-215107D02*
X-215107Y-543607D01*
X-543607Y-186370D02*
X-186370Y-543607D01*
X-543607Y-193554D02*
X-193554Y-543607D01*
X-543607Y-236660D02*
X-236660Y-543607D01*
X-442169D02*
X-136027Y-237465D01*
X-543607Y-222291D02*
X-222291Y-543607D01*
X-543607Y-229475D02*
X-229475Y-543607D01*
X-543607Y-386413D02*
X-255471Y-98277D01*
X-543607Y-379229D02*
X-257365Y-92987D01*
X-543607Y-393597D02*
X-253367Y-103357D01*
X-543607Y-364861D02*
X-261052Y-82305D01*
X-543607Y-372045D02*
X-259227Y-87665D01*
X-503300Y-389211D02*
X-241968Y-127879D01*
X-509729Y-388456D02*
X-244411Y-123138D01*
X-519804Y-391347D02*
X-246746Y-118289D01*
X-543607Y-400782D02*
X-251263Y-108437D01*
X-543607Y-407966D02*
X-249081Y-113440D01*
X-543607Y-380344D02*
X-526516Y-397435D01*
X-543607Y-387528D02*
X-529050Y-402085D01*
X-543607Y-365975D02*
X-518788Y-390794D01*
X-543607Y-373160D02*
X-523085Y-393682D01*
X-543607Y-409081D02*
X-530556Y-422132D01*
X-543607Y-401896D02*
X-530556Y-414948D01*
X-543607Y-422334D02*
X-530544Y-409271D01*
X-543607Y-394712D02*
X-530450Y-407869D01*
X-543607Y-415150D02*
X-527653Y-399196D01*
X-543607Y-272581D02*
X-272581Y-543607D01*
X-543607Y-279765D02*
X-279765Y-543607D01*
X-543607Y-286949D02*
X-286949Y-543607D01*
X-543607Y-258212D02*
X-258212Y-543607D01*
X-543607Y-265396D02*
X-265396Y-543607D01*
X-487444Y-414954D02*
X-358791Y-543607D01*
X-487444Y-429323D02*
X-441277Y-475490D01*
X-487444Y-422139D02*
X-365975Y-543607D01*
X-543607Y-315686D02*
X-315686Y-543607D01*
X-487574Y-407641D02*
X-351607Y-543607D01*
X-530556Y-510000D02*
Y-410000D01*
X-487444Y-510000D02*
Y-410000D01*
X-543607Y-416265D02*
X-530556Y-429316D01*
X-543607Y-429519D02*
X-530556Y-416467D01*
X-543607Y-430633D02*
X-530556Y-443685D01*
X-543607Y-443887D02*
X-530556Y-430836D01*
X-543607Y-423449D02*
X-530556Y-436500D01*
X-543607Y-436703D02*
X-530556Y-423652D01*
X-543607Y-192440D02*
X-256925Y94242D01*
X-543607Y-199624D02*
X-260768Y83215D01*
X-543607Y-206808D02*
X-263705Y73094D01*
X-543607Y-178071D02*
X-246280Y119256D01*
X-543607Y-185255D02*
X-252216Y106135D01*
X-543607Y-228361D02*
X-269841Y45406D01*
X-543607Y-235545D02*
X-271213Y36849D01*
X-543607Y-307387D02*
X-271401Y-35181D01*
X-543607Y-213992D02*
X-266196Y63419D01*
X-543607Y-221176D02*
X-268321Y54110D01*
X-543607Y-257097D02*
X-273325Y13185D01*
X-543607Y-264282D02*
X-273634Y5692D01*
X-543607Y-271466D02*
X-273634Y-1493D01*
X-543607Y-242729D02*
X-272126Y28752D01*
X-543607Y-249913D02*
X-272897Y20797D01*
X-543607Y-293019D02*
X-272817Y-22228D01*
X-543607Y-300203D02*
X-272129Y-28724D01*
X-543607Y-278650D02*
X-273581Y-8624D01*
X-543607Y-285834D02*
X-273199Y-15426D01*
X-543607Y-336124D02*
X-267071Y-59587D01*
X-543607Y-328940D02*
X-268405Y-53738D01*
X-543607Y-343308D02*
X-265735Y-65436D01*
X-543607Y-314571D02*
X-270509Y-41473D01*
X-543607Y-321755D02*
X-269466Y-47614D01*
X-543607Y-243844D02*
X-243844Y-543607D01*
X-543607Y-251028D02*
X-251028Y-543607D01*
X-543607Y-294133D02*
X-294133Y-543607D01*
X-543607Y-350492D02*
X-264265Y-71150D01*
X-543607Y-357677D02*
X-262658Y-76728D01*
X-543607Y-308502D02*
X-308502Y-543607D01*
X-543607Y-322870D02*
X-322870Y-543607D01*
X-543607Y-330054D02*
X-330054Y-543607D01*
X-543607Y543607D02*
X-543607Y-543607D01*
X-543607Y-301317D02*
X-301317Y-543607D01*
X-543607Y-351607D02*
X-506641Y-388573D01*
X-543607Y-358791D02*
X-513483Y-388915D01*
X-543607Y-337239D02*
X-337238Y-543607D01*
X-543607Y-344423D02*
X-344423Y-543607D01*
X-487444Y-450876D02*
X-461604Y-476715D01*
X-487444Y-458060D02*
X-466010Y-479494D01*
X-487444Y-465244D02*
X-469691Y-482997D01*
X-487444Y-436507D02*
X-449967Y-473984D01*
X-487444Y-443691D02*
X-456362Y-474774D01*
X-487444Y-472428D02*
X-472658Y-487215D01*
X-487444Y-502671D02*
X-473397Y-488624D01*
X-499643Y-543607D02*
X-471165Y-515129D01*
X-492953Y-524393D02*
X-473739Y-543607D01*
X-487444Y-493981D02*
X-475280Y-506145D01*
X-487444Y-486796D02*
X-475959Y-498281D01*
X-487444Y-509855D02*
X-475965Y-498377D01*
X-487444Y-479612D02*
X-474828Y-492228D01*
X-489420Y-519015D02*
X-475510Y-505106D01*
X-501504Y-530210D02*
X-488107Y-543607D01*
X-496776Y-527755D02*
X-480923Y-543607D01*
X-507402Y-531497D02*
X-495291Y-543607D01*
X-506828D02*
X-473778Y-510557D01*
X-425490Y-491277D02*
X-373159Y-543607D01*
X-424774Y-506362D02*
X-387528Y-543607D01*
X-423984Y-499967D02*
X-380344Y-543607D01*
X-429494Y-516010D02*
X-401896Y-543607D01*
X-426715Y-511604D02*
X-394712Y-543607D01*
X-437215Y-522658D02*
X-416265Y-543607D01*
X-442228Y-524828D02*
X-423449Y-543607D01*
X-432997Y-519691D02*
X-409081Y-543607D01*
X-456145Y-525280D02*
X-437817Y-543607D01*
X-448281Y-525959D02*
X-430633Y-543607D01*
X-487444Y-501165D02*
X-445002Y-543607D01*
X-488021Y-514956D02*
X-459370Y-543607D01*
X-487444Y-508349D02*
X-452186Y-543607D01*
X-492459D02*
X-467813Y-518961D01*
X-489993Y-520168D02*
X-466554Y-543607D01*
X-470906D02*
X-453127Y-525827D01*
X-463722Y-543607D02*
X-445788Y-525673D01*
X-485275Y-543607D02*
X-463752Y-522084D01*
X-478091Y-543607D02*
X-458922Y-524438D01*
X-543607Y-486992D02*
X-530556Y-473941D01*
X-543607Y-479808D02*
X-530556Y-466757D01*
X-543607Y-473739D02*
X-530556Y-486790D01*
X-543607Y-501361D02*
X-530556Y-488310D01*
X-543607Y-488107D02*
X-530556Y-501158D01*
X-543607Y-495291D02*
X-530556Y-508342D01*
X-543607Y-480923D02*
X-530556Y-493974D01*
X-543607Y-494176D02*
X-530556Y-481125D01*
X-543607Y-458255D02*
X-530556Y-445204D01*
X-543607Y-445002D02*
X-530556Y-458053D01*
X-543607Y-452186D02*
X-530556Y-465237D01*
X-543607Y-437817D02*
X-530556Y-450869D01*
X-543607Y-451071D02*
X-530556Y-438020D01*
X-543607Y-472624D02*
X-530556Y-459573D01*
X-543607Y-466554D02*
X-530556Y-479605D01*
X-543607Y-465440D02*
X-530556Y-452388D01*
X-543607Y-459370D02*
X-530556Y-472421D01*
X-543607Y-524028D02*
X-524028Y-543607D01*
X-542748D02*
X-524313Y-525172D01*
X-543607Y-509660D02*
X-509660Y-543607D01*
X-543607Y-516844D02*
X-516844Y-543607D01*
X-515544Y-530539D02*
X-502475Y-543607D01*
X-521196D02*
X-509144Y-531555D01*
X-514012Y-543607D02*
X-499985Y-529580D01*
X-535564Y-543607D02*
X-520308Y-528352D01*
X-528380Y-543607D02*
X-515367Y-530594D01*
X-543607Y-522913D02*
X-530556Y-509862D01*
X-543607Y-515729D02*
X-530556Y-502678D01*
X-543607Y-530098D02*
X-529660Y-516150D01*
X-543607Y-508545D02*
X-530556Y-495494D01*
X-543607Y-502475D02*
X-529539Y-516544D01*
X-543607Y-538396D02*
X-538396Y-543607D01*
X-542748D02*
X-524313Y-525172D01*
X-543607Y-537282D02*
X-527458Y-521133D01*
X-543607Y-531212D02*
X-531212Y-543607D01*
D13*
X509000Y460000D02*
Y530540D01*
Y460000D02*
X529540D01*
X488460D02*
X509000D01*
Y389460D02*
Y460000D01*
Y-460000D02*
Y-389460D01*
X488460Y-460000D02*
X509000D01*
X529540D01*
X509000Y-530540D02*
Y-460000D01*
X-509000Y460000D02*
Y530540D01*
Y460000D02*
X-488460D01*
X-529540D02*
X-509000D01*
Y389460D02*
Y460000D01*
Y-460000D02*
Y-389460D01*
Y-530540D02*
Y-460000D01*
X-488460D01*
X-529540D02*
X-509000D01*
D14*
D03*
X509000D02*
D03*
Y460000D02*
D03*
X-509000D02*
D03*
D15*
X-450000Y-500000D02*
D03*
X450000D02*
D03*
Y500000D02*
D03*
X-450000D02*
D03*
M02*
