G04*
G04 #@! TF.GenerationSoftware,Altium Limited,Altium Designer,25.6.2 (33)*
G04*
G04 Layer_Physical_Order=1*
G04 Layer_Color=255*
%FSLAX44Y44*%
%MOMM*%
G71*
G04*
G04 #@! TF.SameCoordinates,A8E630A6-B411-46C8-88FA-31B31851F755*
G04*
G04*
G04 #@! TF.FilePolarity,Positive*
G04*
G01*
G75*
%ADD12C,0.2032*%
%ADD13O,3.6000X13.6000*%
D12*
X534016Y510000D02*
G03*
X485984Y510000I-24016J0D01*
G01*
Y410000D02*
G03*
X534016Y410000I24016J0D01*
G01*
X477286Y500000D02*
G03*
X477286Y500000I-27286J0D01*
G01*
X534016Y-410000D02*
G03*
X485984Y-410000I-24016J0D01*
G01*
Y-510000D02*
G03*
X534016Y-510000I24016J0D01*
G01*
X477286Y-500000D02*
G03*
X477286Y-500000I-27286J0D01*
G01*
X-422714Y500000D02*
G03*
X-422714Y500000I-27286J0D01*
G01*
X-485984Y510000D02*
G03*
X-534016Y510000I-24016J0D01*
G01*
Y410000D02*
G03*
X-485984Y410000I24016J0D01*
G01*
Y-410000D02*
G03*
X-534016Y-410000I-24016J0D01*
G01*
X-422714Y-500000D02*
G03*
X-422714Y-500000I-27286J0D01*
G01*
X-534016Y-510000D02*
G03*
X-485984Y-510000I24016J0D01*
G01*
X522467Y543607D02*
X543607Y522467D01*
X529652Y543607D02*
X543607Y529652D01*
X515283Y543607D02*
X543607Y515283D01*
X335678Y543607D02*
X543607Y335678D01*
X328494Y543607D02*
X543607Y328494D01*
X527406Y526547D02*
X543607Y542748D01*
X527406Y526547D02*
X543607Y542748D01*
X530520Y522477D02*
X543607Y535564D01*
X321309Y543607D02*
X543607Y321309D01*
X314125Y543607D02*
X543607Y314125D01*
X505761Y533639D02*
X515729Y543607D01*
X500915D02*
X510511Y534011D01*
X508099Y543607D02*
X519765Y531941D01*
X493731Y543607D02*
X504066Y533271D01*
X475259Y510321D02*
X508545Y543607D01*
X536836D02*
X543607Y536836D01*
X518826Y532336D02*
X530098Y543607D01*
X523522Y529847D02*
X537282Y543607D01*
X513119Y533813D02*
X522913Y543607D01*
X235099D02*
X543607Y235099D01*
X242283Y543607D02*
X543607Y242283D01*
X227915Y543607D02*
X543607Y227915D01*
X220730Y543607D02*
X543607Y220730D01*
X213546Y543607D02*
X543607Y213546D01*
X199178Y543607D02*
X543607Y199178D01*
X206362Y543607D02*
X543607Y206362D01*
X191994Y543607D02*
X543607Y191994D01*
X184809Y543607D02*
X543607Y184809D01*
X177625Y543607D02*
X543607Y177625D01*
X299757Y543607D02*
X543607Y299757D01*
X306941Y543607D02*
X543607Y306941D01*
X292573Y543607D02*
X543607Y292572D01*
X285388Y543607D02*
X543607Y285388D01*
X278204Y543607D02*
X543607Y278204D01*
X271020Y543607D02*
X543607Y271020D01*
X263836Y543607D02*
X543607Y263836D01*
X256651Y543607D02*
X543607Y256651D01*
X249467Y543607D02*
X543607Y249467D01*
X91415Y543607D02*
X543607Y91415D01*
X98599Y543607D02*
X543607Y98599D01*
X84230Y543607D02*
X543607Y84230D01*
X77046Y543607D02*
X543607Y77046D01*
X69862Y543607D02*
X543607Y69862D01*
X55494Y543607D02*
X543607Y55493D01*
X62678Y543607D02*
X543607Y62678D01*
X48309Y543607D02*
X543607Y48309D01*
X41125Y543607D02*
X543607Y41125D01*
X33941Y543607D02*
X543607Y33941D01*
X163257Y543607D02*
X543607Y163257D01*
X170441Y543607D02*
X543607Y170441D01*
X156073Y543607D02*
X543607Y156073D01*
X148888Y543607D02*
X543607Y148888D01*
X141704Y543607D02*
X543607Y141704D01*
X127336Y543607D02*
X543607Y127336D01*
X134520Y543607D02*
X543607Y134520D01*
X120152Y543607D02*
X543607Y120151D01*
X112967Y543607D02*
X543607Y112967D01*
X105783Y543607D02*
X543607Y105783D01*
X-45085Y543607D02*
X543607Y-45086D01*
X-37901Y543607D02*
X543607Y-37901D01*
X-52270Y543607D02*
X543607Y-52270D01*
X-59454Y543607D02*
X543607Y-59454D01*
X-66638Y543607D02*
X543607Y-66638D01*
X-81006Y543607D02*
X543607Y-81006D01*
X-73822Y543607D02*
X543607Y-73822D01*
X-88191Y543607D02*
X543607Y-88191D01*
X-95375Y543607D02*
X543607Y-95375D01*
X-102559Y543607D02*
X543607Y-102559D01*
X19572Y543607D02*
X543607Y19572D01*
X26757Y543607D02*
X543607Y26757D01*
X12388Y543607D02*
X543607Y12388D01*
X5204Y543607D02*
X543607Y5204D01*
X-1980Y543607D02*
X543607Y-1980D01*
X-9164Y543607D02*
X543607Y-9164D01*
X-16349Y543607D02*
X543607Y-16349D01*
X-23533Y543607D02*
X543607Y-23533D01*
X-30717Y543607D02*
X543607Y-30717D01*
X534016Y468499D02*
X543607Y478091D01*
X534016Y481769D02*
X543607Y472178D01*
X534016Y474585D02*
X543607Y464994D01*
X534016Y488953D02*
X543607Y479362D01*
X534016Y475684D02*
X543607Y485275D01*
X534016Y460216D02*
X543607Y450625D01*
X534016Y454131D02*
X543607Y463722D01*
X534016Y446947D02*
X543607Y456538D01*
X534016Y461315D02*
X543607Y470906D01*
X534016Y467401D02*
X543607Y457809D01*
X534016Y504420D02*
X543607Y514012D01*
X533966Y511554D02*
X543607Y521196D01*
X534011Y510511D02*
X543607Y500915D01*
X532793Y517566D02*
X543607Y528380D01*
X531941Y519765D02*
X543607Y508099D01*
X534016Y496138D02*
X543607Y486546D01*
X534016Y490052D02*
X543607Y499643D01*
X534016Y482868D02*
X543607Y492459D01*
X534016Y497236D02*
X543607Y506828D01*
X534016Y503322D02*
X543607Y493731D01*
X534016Y411026D02*
X543607Y420617D01*
X534016Y424295D02*
X543607Y414704D01*
X534016Y417111D02*
X543607Y407520D01*
X532882Y402707D02*
X543607Y413433D01*
X534016Y409927D02*
X543607Y400336D01*
X531080Y398494D02*
X543607Y385967D01*
X533150Y403609D02*
X543607Y393152D01*
X528135Y394255D02*
X543607Y378783D01*
X524415Y390791D02*
X543607Y371599D01*
X519902Y388120D02*
X543607Y364415D01*
X534016Y445848D02*
X543607Y436257D01*
X534016Y439762D02*
X543607Y449354D01*
X534016Y432578D02*
X543607Y442169D01*
X534016Y453032D02*
X543607Y443441D01*
X534016Y410000D02*
Y510000D01*
Y431480D02*
X543607Y421888D01*
X534016Y418210D02*
X543607Y427801D01*
X534016Y438664D02*
X543607Y429073D01*
X534016Y425394D02*
X543607Y434985D01*
X507544Y386110D02*
X543607Y350046D01*
X514440Y386398D02*
X543607Y357230D01*
X495938Y390532D02*
X543607Y342862D01*
X257710Y84430D02*
X543607Y370327D01*
X259416Y78952D02*
X543607Y363143D01*
X265302Y56101D02*
X543607Y334406D01*
X263967Y61950D02*
X543607Y341591D01*
X266504Y50119D02*
X543607Y327222D01*
X261023Y73374D02*
X543607Y355959D01*
X262607Y67775D02*
X543607Y348775D01*
X249853Y105309D02*
X543607Y399064D01*
X251957Y100230D02*
X543607Y391880D01*
X245431Y115257D02*
X517293Y387118D01*
X247748Y110389D02*
X543607Y406249D01*
X253986Y95074D02*
X543607Y384696D01*
X255848Y89752D02*
X543607Y377512D01*
X240740Y124934D02*
X502872Y387066D01*
X243096Y120106D02*
X508995Y386005D01*
X269985Y-25427D02*
X543607Y248196D01*
X270569Y-17658D02*
X543607Y255380D01*
X269072Y-33523D02*
X543607Y241012D01*
X267905Y-41875D02*
X543607Y233827D01*
X266434Y-50530D02*
X543607Y226643D01*
X262263Y-69070D02*
X543607Y212275D01*
X264490Y-59658D02*
X543607Y219459D01*
X259356Y-79161D02*
X543607Y205091D01*
X255794Y-89907D02*
X543607Y197906D01*
X251462Y-101423D02*
X543607Y190722D01*
X270042Y24920D02*
X543607Y298485D01*
X269314Y31376D02*
X543607Y305669D01*
X270537Y18231D02*
X543607Y291301D01*
X267547Y43978D02*
X543607Y320038D01*
X268573Y37819D02*
X543607Y312854D01*
X271134Y4459D02*
X543607Y276933D01*
X271134Y-2725D02*
X543607Y269748D01*
X270919Y11429D02*
X543607Y284117D01*
X270997Y-10046D02*
X543607Y262564D01*
X465701Y522316D02*
X486992Y543607D01*
X461119Y524918D02*
X479808Y543607D01*
X464994D02*
X488304Y520297D01*
X455700Y526684D02*
X472624Y543607D01*
X457809D02*
X486494Y514923D01*
X486546Y543607D02*
X498871Y531282D01*
X479362Y543607D02*
X494568Y528401D01*
X472777Y515024D02*
X501361Y543607D01*
X472178D02*
X491042Y524743D01*
X469577Y519007D02*
X494177Y543607D01*
X421888D02*
X440078Y525418D01*
X414704Y543607D02*
X435314Y522997D01*
X407520Y543607D02*
X431278Y519850D01*
X400336Y543607D02*
X427917Y516026D01*
X393152Y543607D02*
X425257Y511502D01*
X449104Y527271D02*
X465440Y543607D01*
X440059Y525410D02*
X458256Y543607D01*
X443441D02*
X463128Y523920D01*
X436257Y543607D02*
X452713Y527151D01*
X429073Y543607D02*
X445730Y526950D01*
X476870Y504748D02*
X486361Y514239D01*
X364415Y543607D02*
X485984Y422038D01*
X357230Y543607D02*
X485984Y414854D01*
X350046Y543607D02*
X486110Y407544D01*
X342862Y543607D02*
X490532Y395938D01*
X477151Y502713D02*
X485984Y493880D01*
X477205Y497899D02*
X485984Y506678D01*
Y410000D02*
Y510000D01*
X474520Y488030D02*
X485984Y499494D01*
X476950Y495730D02*
X485984Y486696D01*
X450625Y543607D02*
X485984Y508248D01*
X385967Y543607D02*
X423418Y506157D01*
X378783Y543607D02*
X422716Y499674D01*
X371599Y543607D02*
X424260Y490946D01*
X473920Y513128D02*
X485984Y501064D01*
X152946Y223930D02*
X423316Y494300D01*
X144235Y229586D02*
X424590Y509941D01*
X148647Y226814D02*
X422729Y500896D01*
X26463Y269868D02*
X300203Y543607D01*
X19857Y270446D02*
X293019Y543607D01*
X32920Y269140D02*
X307387Y543607D01*
X6177Y271134D02*
X278650Y543607D01*
X13055Y270828D02*
X285834Y543607D01*
X57499Y264983D02*
X336124Y543607D01*
X51587Y266255D02*
X328940Y543607D01*
X63348Y263648D02*
X343308Y543607D01*
X39305Y268341D02*
X314571Y543607D01*
X45446Y267298D02*
X321755Y543607D01*
X-31588Y269290D02*
X242729Y543607D01*
X-39806Y268256D02*
X235545Y543607D01*
X-48461Y266786D02*
X228361Y543607D01*
X-57433Y264998D02*
X221176Y543607D01*
X-66742Y262873D02*
X213992Y543607D01*
X-1007Y271134D02*
X271466Y543607D01*
X-8226Y271099D02*
X264282Y543607D01*
X-15838Y270672D02*
X257098Y543607D01*
X-23491Y270203D02*
X249913Y543607D01*
X111567Y247208D02*
X407966Y543607D01*
X106524Y249349D02*
X400782Y543607D01*
X116416Y244873D02*
X415150Y543607D01*
X96347Y253540D02*
X386413Y543607D01*
X101444Y251454D02*
X393598Y543607D01*
X135294Y235014D02*
X443887Y543607D01*
X130667Y237571D02*
X436703Y543607D01*
X139823Y232359D02*
X451071Y543607D01*
X121265Y242538D02*
X422335Y543607D01*
X126040Y240128D02*
X429519Y543607D01*
X69130Y262245D02*
X350492Y543607D01*
X-76749Y260051D02*
X206808Y543607D01*
X-87265Y256718D02*
X199624Y543607D01*
X-98491Y252677D02*
X192440Y543607D01*
X-110808Y247544D02*
X185256Y543607D01*
X85703Y257265D02*
X372045Y543607D01*
X91025Y255403D02*
X379229Y543607D01*
X74708Y260639D02*
X357677Y543607D01*
X80285Y259032D02*
X364861Y543607D01*
X215626Y164478D02*
X485984Y434836D01*
X440946Y474260D02*
X485984Y429222D01*
X218679Y160346D02*
X485984Y427651D01*
X209252Y172472D02*
X485984Y449204D01*
X212439Y168475D02*
X485984Y442020D01*
X230249Y143180D02*
X487832Y400762D01*
X227477Y147592D02*
X486259Y406374D01*
X233021Y138768D02*
X490390Y396136D01*
X221661Y156144D02*
X485984Y420467D01*
X224643Y151942D02*
X485984Y413283D01*
X472997Y485314D02*
X485984Y472327D01*
X475418Y490078D02*
X485984Y479512D01*
X469850Y481278D02*
X485984Y465143D01*
X466026Y477917D02*
X485984Y457959D01*
X461502Y475257D02*
X485984Y450775D01*
X449674Y472716D02*
X485984Y436406D01*
X456157Y473418D02*
X485984Y443591D01*
X225620Y150548D02*
X233531Y137956D01*
X207345Y174862D02*
X216617Y163236D01*
X216824Y162961D02*
X225429Y150834D01*
X268596Y37746D02*
X270261Y22969D01*
X266058Y52747D02*
X268548Y38087D01*
X270290Y22626D02*
X271124Y7779D01*
X235625Y134188D02*
X493752Y392314D01*
X238183Y129561D02*
X497885Y389263D01*
X271134Y-7435D02*
Y-0D01*
Y7435D01*
X270290Y-22626D02*
X271124Y-7779D01*
X268596Y-37746D02*
X270261Y-22969D01*
X266058Y-52747D02*
X268548Y-38087D01*
X253463Y96568D02*
X258374Y82532D01*
X247650Y110628D02*
X253340Y96889D01*
X258479Y82204D02*
X262596Y67915D01*
X233706Y137660D02*
X240899Y124645D01*
X241057Y124339D02*
X247509Y110942D01*
X262681Y67582D02*
X265990Y53084D01*
X262681Y-67582D02*
X265990Y-53084D01*
X258479Y-82204D02*
X262596Y-67915D01*
X253463Y-96568D02*
X258374Y-82532D01*
X67915Y262596D02*
X82204Y258479D01*
X53084Y265990D02*
X67582Y262681D01*
X157149Y220948D02*
X425082Y488881D01*
X22969Y270261D02*
X37746Y268596D01*
X38087Y268548D02*
X52747Y266058D01*
X124645Y240899D02*
X137660Y233706D01*
X110942Y247509D02*
X124339Y241057D01*
X137956Y233531D02*
X150547Y225620D01*
X82532Y258374D02*
X96568Y253463D01*
X96889Y253340D02*
X110628Y247650D01*
X-7435Y271134D02*
X7435D01*
X-22626Y270290D02*
X-7779Y271124D01*
X7779D02*
X22626Y270290D01*
X-37746Y268596D02*
X-22969Y270261D01*
X-52747Y266058D02*
X-38087Y268548D01*
X-67582Y262681D02*
X-53084Y265990D01*
X-82204Y258479D02*
X-67915Y262596D01*
X-96568Y253463D02*
X-82532Y258374D01*
X-110628Y247650D02*
X-96889Y253340D01*
X192150Y191291D02*
X485984Y485125D01*
X192150Y191291D02*
X485984Y485125D01*
X195742Y187699D02*
X485984Y477941D01*
X184888Y198398D02*
X461970Y475480D01*
X188558Y194883D02*
X485984Y492309D01*
X202599Y180188D02*
X485984Y463573D01*
X199209Y183981D02*
X485984Y470757D01*
X205989Y176394D02*
X485984Y456388D01*
X177301Y205179D02*
X445252Y473130D01*
X181095Y201789D02*
X452101Y472795D01*
X169430Y211677D02*
X434976Y477223D01*
X165434Y214864D02*
X430993Y480423D01*
X173427Y208490D02*
X439679Y474741D01*
X161351Y217966D02*
X427684Y484299D01*
X150834Y225429D02*
X162961Y216824D01*
X186463Y196978D02*
X196978Y186463D01*
X197214Y186213D02*
X207123Y175125D01*
X163236Y216617D02*
X174862Y207345D01*
X175125Y207123D02*
X186213Y197214D01*
X267505Y44227D02*
X543607Y-231875D01*
X265995Y52922D02*
X543607Y-224691D01*
X268824Y35724D02*
X543607Y-239059D01*
X261473Y71812D02*
X543607Y-210322D01*
X263913Y62188D02*
X543607Y-217507D01*
X271134Y4678D02*
X543607Y-267796D01*
X270881Y12115D02*
X543607Y-260612D01*
X271134Y-2507D02*
X543607Y-274980D01*
X269737Y27627D02*
X543607Y-246243D01*
X270453Y19727D02*
X543607Y-253428D01*
X238787Y-128466D02*
X543607Y176354D01*
X246006Y-114064D02*
X543607Y183538D01*
X228544Y-145894D02*
X543607Y169170D01*
X225116Y151274D02*
X543607Y-167217D01*
X209651Y-171971D02*
X543607Y161985D01*
X254743Y92911D02*
X543607Y-195954D01*
X250082Y104756D02*
X543607Y-188770D01*
X258565Y81904D02*
X543607Y-203138D01*
X236375Y132831D02*
X543607Y-174401D01*
X244192Y117830D02*
X543607Y-181586D01*
X261459Y-71859D02*
X543607Y-354007D01*
X262995Y-66210D02*
X543607Y-346822D01*
X543607Y543607D02*
X543607Y-543607D01*
X259853Y-77436D02*
X543607Y-361191D01*
X258216Y-82984D02*
X543607Y-368375D01*
X254492Y-93628D02*
X543607Y-382743D01*
X256354Y-88306D02*
X543607Y-375559D01*
X252529Y-98849D02*
X543607Y-389928D01*
X250424Y-103929D02*
X543607Y-397112D01*
X248320Y-109009D02*
X543607Y-404296D01*
X270641Y-16382D02*
X543607Y-289349D01*
X271023Y-9580D02*
X543607Y-282164D01*
X270239Y-23165D02*
X543607Y-296533D01*
X269512Y-29622D02*
X543607Y-303717D01*
X268784Y-36078D02*
X543607Y-310901D01*
X267831Y-42309D02*
X543607Y-318085D01*
X266788Y-48450D02*
X543607Y-325270D01*
X265665Y-54511D02*
X543607Y-332454D01*
X264330Y-60360D02*
X543607Y-339638D01*
X-109743Y543607D02*
X543607Y-109743D01*
X-54222Y-543607D02*
X543607Y54222D01*
X-47038Y-543607D02*
X543607Y47038D01*
X-116927Y543607D02*
X543607Y-116928D01*
X-124112Y543607D02*
X543607Y-124112D01*
X-18301Y-543607D02*
X543607Y18301D01*
X-25485Y-543607D02*
X543607Y25485D01*
X-11117Y-543607D02*
X543607Y11117D01*
X-39854Y-543607D02*
X543607Y39854D01*
X-32669Y-543607D02*
X543607Y32669D01*
X-97327Y-543607D02*
X543607Y97327D01*
X-104512Y-543607D02*
X543607Y104512D01*
X-90143Y-543607D02*
X543607Y90143D01*
X-118880Y-543607D02*
X543607Y118880D01*
X-111696Y-543607D02*
X543607Y111696D01*
X-68590Y-543607D02*
X543607Y68590D01*
X-61406Y-543607D02*
X543607Y61406D01*
X-82959Y-543607D02*
X543607Y82959D01*
X-75775Y-543607D02*
X543607Y75775D01*
X82278Y-543607D02*
X543607Y-82278D01*
X75094Y-543607D02*
X543607Y-75094D01*
X89462Y-543607D02*
X543607Y-89462D01*
X60725Y-543607D02*
X543607Y-60725D01*
X67909Y-543607D02*
X543607Y-67909D01*
X118199Y-543607D02*
X543607Y-118199D01*
X111015Y-543607D02*
X543607Y-111015D01*
X125383Y-543607D02*
X543607Y-125383D01*
X96646Y-543607D02*
X543607Y-96646D01*
X103831Y-543607D02*
X543607Y-103830D01*
X17620Y-543607D02*
X543607Y-17620D01*
X10436Y-543607D02*
X543607Y-10436D01*
X24804Y-543607D02*
X543607Y-24804D01*
X-3933Y-543607D02*
X543607Y3933D01*
X3252Y-543607D02*
X543607Y-3252D01*
X46357Y-543607D02*
X543607Y-46357D01*
X53541Y-543607D02*
X543607Y-53541D01*
X31988Y-543607D02*
X543607Y-31988D01*
X39173Y-543607D02*
X543607Y-39173D01*
X534016Y-437810D02*
X543607Y-447401D01*
X534016Y-443896D02*
X543607Y-434304D01*
X534016Y-451080D02*
X543607Y-441488D01*
X534016Y-436711D02*
X543607Y-427120D01*
X534016Y-430626D02*
X543607Y-440217D01*
X534016Y-465448D02*
X543607Y-455857D01*
X534016Y-452178D02*
X543607Y-461770D01*
X534016Y-459363D02*
X543607Y-468954D01*
X534016Y-444994D02*
X543607Y-454586D01*
X534016Y-458264D02*
X543607Y-448673D01*
X533937Y-408054D02*
X543607Y-398383D01*
X532686Y-402120D02*
X543607Y-391199D01*
X534016Y-415159D02*
X543607Y-405567D01*
X530360Y-397262D02*
X543607Y-384015D01*
X531572Y-399445D02*
X543607Y-411480D01*
X534016Y-429527D02*
X543607Y-419936D01*
X534016Y-416257D02*
X543607Y-425849D01*
X534016Y-423442D02*
X543607Y-433033D01*
X533997Y-409055D02*
X543607Y-418665D01*
X534016Y-422343D02*
X543607Y-412752D01*
X534016Y-502468D02*
X543607Y-512059D01*
X534016Y-508554D02*
X543607Y-498962D01*
X534016Y-509652D02*
X543607Y-519244D01*
X534016Y-495284D02*
X543607Y-504875D01*
X533066Y-516688D02*
X543607Y-506146D01*
X534883Y-543607D02*
X543607Y-534883D01*
X533239Y-516059D02*
X543607Y-526428D01*
X542067Y-543607D02*
X543607Y-542067D01*
X531228Y-521232D02*
X543607Y-533612D01*
X528329Y-525518D02*
X543607Y-540796D01*
X534016Y-473731D02*
X543607Y-483322D01*
X534016Y-479817D02*
X543607Y-470225D01*
X534016Y-487001D02*
X543607Y-477410D01*
X534016Y-472632D02*
X543607Y-463041D01*
X534016Y-466547D02*
X543607Y-476138D01*
X534016Y-488100D02*
X543607Y-497691D01*
X534016Y-501369D02*
X543607Y-491778D01*
X534016Y-480915D02*
X543607Y-490507D01*
X534016Y-494185D02*
X543607Y-484594D01*
X240331Y-543607D02*
X543607Y-240331D01*
X233146Y-543607D02*
X543607Y-233146D01*
X247515Y-543607D02*
X543607Y-247515D01*
X218778Y-543607D02*
X543607Y-218778D01*
X225962Y-543607D02*
X543607Y-225962D01*
X523270Y-389983D02*
X543607Y-369646D01*
X518522Y-387547D02*
X543607Y-362462D01*
X527200Y-393238D02*
X543607Y-376831D01*
X254699Y-543607D02*
X543607Y-254699D01*
X261883Y-543607D02*
X543607Y-261883D01*
X190041Y-543607D02*
X543607Y-190041D01*
X182857Y-543607D02*
X543607Y-182857D01*
X197225Y-543607D02*
X543607Y-197225D01*
X168489Y-543607D02*
X543607Y-168488D01*
X175673Y-543607D02*
X543607Y-175673D01*
X512744Y-386141D02*
X543607Y-355278D01*
X505241Y-386460D02*
X543607Y-348094D01*
X204410Y-543607D02*
X543607Y-204410D01*
X211594Y-543607D02*
X543607Y-211594D01*
X154120Y-543607D02*
X543607Y-154120D01*
X146936Y-543607D02*
X543607Y-146936D01*
X161304Y-543607D02*
X543607Y-161304D01*
X132567Y-543607D02*
X543607Y-132567D01*
X139752Y-543607D02*
X543607Y-139752D01*
X520515Y-543607D02*
X543607Y-520515D01*
X513331Y-543607D02*
X543607Y-513331D01*
X527699Y-543607D02*
X543607Y-527699D01*
X333725Y-543607D02*
X543607Y-333725D01*
X340910Y-543607D02*
X543607Y-340910D01*
X290620Y-543607D02*
X543607Y-290620D01*
X283436Y-543607D02*
X543607Y-283436D01*
X297804Y-543607D02*
X543607Y-297804D01*
X269067Y-543607D02*
X543607Y-269067D01*
X276252Y-543607D02*
X543607Y-276252D01*
X319357Y-543607D02*
X543607Y-319357D01*
X326541Y-543607D02*
X543607Y-326541D01*
X304988Y-543607D02*
X543607Y-304988D01*
X312173Y-543607D02*
X543607Y-312173D01*
X243731Y-118788D02*
X510946Y-386003D01*
X241395Y-123637D02*
X504404Y-386645D01*
X246066Y-113939D02*
X520555Y-388428D01*
X238878Y-128303D02*
X499149Y-388575D01*
X236320Y-132930D02*
X494798Y-391408D01*
X233763Y-137557D02*
X491227Y-395021D01*
X231003Y-141981D02*
X488441Y-399419D01*
X228230Y-146393D02*
X486569Y-404731D01*
X225447Y-150793D02*
X485984Y-411331D01*
X222471Y-155002D02*
X485984Y-418515D01*
X247650Y-110628D02*
X253340Y-96889D01*
X241057Y-124339D02*
X247509Y-110942D01*
X233706Y-137660D02*
X240899Y-124645D01*
X225620Y-150548D02*
X233531Y-137956D01*
X216824Y-162961D02*
X225429Y-150834D01*
X207345Y-174862D02*
X216617Y-163236D01*
X197214Y-186213D02*
X207123Y-175125D01*
X186463Y-196978D02*
X196978Y-186463D01*
X175125Y-207123D02*
X186213Y-197214D01*
X163236Y-216617D02*
X174862Y-207345D01*
X216493Y-163392D02*
X485984Y-432883D01*
X219489Y-159204D02*
X485984Y-425699D01*
X213305Y-167389D02*
X485984Y-440067D01*
X210118Y-171385D02*
X485984Y-447252D01*
X206911Y-175363D02*
X485984Y-454436D01*
X200130Y-182950D02*
X485984Y-468804D01*
X203521Y-179157D02*
X485984Y-461620D01*
X196718Y-186723D02*
X485984Y-475989D01*
X193126Y-190315D02*
X485984Y-483173D01*
X189534Y-193907D02*
X485984Y-490357D01*
X182126Y-200867D02*
X454318Y-473058D01*
X178333Y-204257D02*
X446959Y-472884D01*
X185920Y-197476D02*
X467555Y-479112D01*
X174514Y-207623D02*
X441098Y-474207D01*
X170517Y-210810D02*
X436180Y-476473D01*
X166521Y-213998D02*
X432009Y-479486D01*
X162494Y-217155D02*
X428517Y-483178D01*
X158292Y-220137D02*
X425715Y-487560D01*
X154089Y-223119D02*
X423700Y-492730D01*
X149846Y-226060D02*
X422734Y-498948D01*
X150834Y-225429D02*
X162961Y-216824D01*
X145434Y-228833D02*
X423637Y-507035D01*
X137956Y-233531D02*
X150548Y-225620D01*
X124645Y-240899D02*
X137660Y-233706D01*
X-74004Y-260841D02*
X208762Y-543607D01*
X-84260Y-257770D02*
X201577Y-543607D01*
X-64210Y-263451D02*
X215946Y-543607D01*
X-107420Y-248978D02*
X187209Y-543607D01*
X-95311Y-253903D02*
X194393Y-543607D01*
X110942Y-247509D02*
X124339Y-241057D01*
X96889Y-253340D02*
X110628Y-247650D01*
X82532Y-258374D02*
X96568Y-253463D01*
X-110628Y-247650D02*
X-96889Y-253340D01*
X-96568Y-253463D02*
X-82532Y-258374D01*
X67915Y-262596D02*
X82204Y-258479D01*
X53084Y-265991D02*
X67582Y-262682D01*
X-82204Y-258479D02*
X-67915Y-262596D01*
X-67582Y-262682D02*
X-53084Y-265991D01*
X136552Y-234319D02*
X445841Y-543607D01*
X131925Y-236876D02*
X438657Y-543607D01*
X141022Y-231605D02*
X453025Y-543607D01*
X122584Y-241903D02*
X424288Y-543607D01*
X127298Y-239433D02*
X431472Y-543607D01*
X112885Y-246573D02*
X409920Y-543607D01*
X107905Y-248777D02*
X402735Y-543607D01*
X117734Y-244238D02*
X417104Y-543607D01*
X97745Y-252986D02*
X388367Y-543607D01*
X102825Y-250882D02*
X395551Y-543607D01*
X87150Y-256758D02*
X373999Y-543607D01*
X81802Y-258595D02*
X366814Y-543607D01*
X92472Y-254896D02*
X381183Y-543607D01*
X-120840Y-242742D02*
X180025Y-543607D01*
X76224Y-260202D02*
X359630Y-543607D01*
X64939Y-263285D02*
X345262Y-543607D01*
X70647Y-261808D02*
X352446Y-543607D01*
X-54901Y-265576D02*
X223130Y-543607D01*
X59090Y-264620D02*
X338078Y-543607D01*
X485984Y-510000D02*
Y-410000D01*
X534016Y-510000D02*
Y-410000D01*
X477279Y-500633D02*
X485984Y-491928D01*
X476942Y-495682D02*
X485984Y-504724D01*
X475793Y-508902D02*
X489659Y-522768D01*
X477116Y-503041D02*
X486067Y-511991D01*
X475569Y-509527D02*
X485984Y-499112D01*
X448673Y-543607D02*
X485984Y-506296D01*
X464869Y-477121D02*
X485984Y-456007D01*
X460139Y-474668D02*
X485984Y-448822D01*
X468877Y-480298D02*
X485984Y-463191D01*
X447620Y-472818D02*
X485984Y-434454D01*
X454529Y-473093D02*
X485984Y-441638D01*
X474838Y-488705D02*
X485984Y-477559D01*
X472210Y-484149D02*
X485984Y-470375D01*
X476638Y-494089D02*
X485984Y-484743D01*
X470888Y-482445D02*
X485984Y-497540D01*
X451052Y-527266D02*
X467393Y-543607D01*
X520191Y-531747D02*
X532051Y-543607D01*
X497232Y-530341D02*
X510499Y-543607D01*
X524654Y-529027D02*
X539234Y-543607D01*
X473527Y-513820D02*
X503314Y-543607D01*
X484594D02*
X497621Y-530580D01*
X508009Y-533933D02*
X517683Y-543607D01*
X506147D02*
X516688Y-533066D01*
X514793Y-533533D02*
X524867Y-543607D01*
X491778D02*
X502553Y-532832D01*
X498962Y-543607D02*
X508595Y-533975D01*
X470225Y-543607D02*
X490217Y-523616D01*
X466822Y-521483D02*
X488946Y-543607D01*
X470514Y-517991D02*
X496130Y-543607D01*
X455857D02*
X486206Y-513258D01*
X463041Y-543607D02*
X487710Y-518939D01*
X462440Y-524285D02*
X481762Y-543607D01*
X477410D02*
X493534Y-527483D01*
X442965Y-526364D02*
X460209Y-543607D01*
X457270Y-526300D02*
X474577Y-543607D01*
X28219Y-269670D02*
X302156Y-543607D01*
X21707Y-270342D02*
X294972Y-543607D01*
X34676Y-268943D02*
X309341Y-543607D01*
X-13768Y-270788D02*
X259051Y-543607D01*
X14905Y-270724D02*
X287788Y-543607D01*
X437517Y-475737D02*
X485984Y-427270D01*
X8102Y-271106D02*
X280604Y-543607D01*
X-6238Y-271134D02*
X266235Y-543607D01*
X946Y-271134D02*
X273420Y-543607D01*
X38087Y-268549D02*
X52747Y-266058D01*
X22969Y-270261D02*
X37746Y-268597D01*
X-29386Y-269538D02*
X244683Y-543607D01*
X-52747Y-266058D02*
X-38087Y-268549D01*
X-37746Y-268597D02*
X-22969Y-270261D01*
X7779Y-271124D02*
X22626Y-270290D01*
X-7435Y-271134D02*
X7435D01*
X-22626Y-270290D02*
X-7779Y-271124D01*
X-21380Y-270360D02*
X251867Y-543607D01*
X362462D02*
X485984Y-420085D01*
X398383Y-543607D02*
X427121Y-514869D01*
X405568Y-543607D02*
X430298Y-518877D01*
X348094Y-543607D02*
X486460Y-405241D01*
X355278Y-543607D02*
X485984Y-412901D01*
X434304Y-543607D02*
X450633Y-527279D01*
X427120Y-543607D02*
X444089Y-526638D01*
X441489Y-543607D02*
X459527Y-525569D01*
X412752Y-543607D02*
X434149Y-522210D01*
X419936Y-543607D02*
X438705Y-524838D01*
X47116Y-267014D02*
X323709Y-543607D01*
X40975Y-268058D02*
X316525Y-543607D01*
X53241Y-265955D02*
X330893Y-543607D01*
X-46107Y-267186D02*
X230314Y-543607D01*
X-37483Y-268626D02*
X237498Y-543607D01*
X384015D02*
X423093Y-504529D01*
X391199Y-543607D02*
X424668Y-510139D01*
X369646Y-543607D02*
X425737Y-487517D01*
X376831Y-543607D02*
X422818Y-497620D01*
X-224691Y543607D02*
X52922Y265995D01*
X-231875Y543607D02*
X44227Y267505D01*
X-217507Y543607D02*
X62188Y263913D01*
X-246243Y543607D02*
X27627Y269737D01*
X-239059Y543607D02*
X35724Y268824D01*
X-188770Y543607D02*
X104756Y250082D01*
X-195954Y543607D02*
X92911Y254743D01*
X-181585Y543607D02*
X117830Y244192D01*
X-210322Y543607D02*
X71812Y261473D01*
X-203138Y543607D02*
X81904Y258565D01*
X-289349Y543607D02*
X-16382Y270641D01*
X-296533Y543607D02*
X-23165Y270239D01*
X-303717Y543607D02*
X-29622Y269512D01*
X-310901Y543607D02*
X-36078Y268784D01*
X-318085Y543607D02*
X-42309Y267831D01*
X-260612Y543607D02*
X12115Y270881D01*
X-267796Y543607D02*
X4678Y271134D01*
X-253428Y543607D02*
X19727Y270453D01*
X-274980Y543607D02*
X-2507Y271134D01*
X-282164Y543607D02*
X-9580Y271023D01*
X-174401Y543607D02*
X132831Y236375D01*
X-543607Y-120597D02*
X120597Y543607D01*
X-543607Y-127782D02*
X127782Y543607D01*
X-543607Y-84676D02*
X84677Y543607D01*
X-543607Y-106229D02*
X106229Y543607D01*
X-124633Y240903D02*
X178071Y543607D01*
X-141273Y231448D02*
X170887Y543607D01*
X-131296D02*
X543607Y-131296D01*
X-167217Y543607D02*
X151274Y225116D01*
X-163491Y216413D02*
X163703Y543607D01*
X-425849D02*
X-123637Y241395D01*
X-433033Y543607D02*
X-128303Y238878D01*
X-440217Y543607D02*
X-132930Y236320D01*
X-447401Y543607D02*
X-137557Y233763D01*
X-454585Y543607D02*
X-141981Y231003D01*
X-418664Y543607D02*
X-118788Y243731D01*
X-543607Y-55940D02*
X55940Y543607D01*
X-543607Y-41571D02*
X41571Y543607D01*
X-543607Y-48755D02*
X48755Y543607D01*
X-543607Y159587D02*
X-159587Y543607D01*
X-543607Y166771D02*
X-166771Y543607D01*
X-543607Y152402D02*
X-152402Y543607D01*
X-543607Y181139D02*
X-181139Y543607D01*
X-543607Y173955D02*
X-173955Y543607D01*
X-543607Y130850D02*
X-130850Y543607D01*
X-543607Y138034D02*
X-138034Y543607D01*
X-543607Y123666D02*
X-123666Y543607D01*
X-543607D02*
X543607D01*
X-543607Y145218D02*
X-145218Y543607D01*
X-543607Y231429D02*
X-231429Y543607D01*
X-543607Y238613D02*
X-238613Y543607D01*
X-543607Y224245D02*
X-224245Y543607D01*
X-543607Y252981D02*
X-252981Y543607D01*
X-543607Y245797D02*
X-245797Y543607D01*
X-543607Y195508D02*
X-195508Y543607D01*
X-543607Y202692D02*
X-202692Y543607D01*
X-543607Y188324D02*
X-188324Y543607D01*
X-543607Y217060D02*
X-217060Y543607D01*
X-543607Y209876D02*
X-209876Y543607D01*
X-543607Y-63124D02*
X63124Y543607D01*
X-543607Y-34387D02*
X34387Y543607D01*
X-543607Y-70308D02*
X70308Y543607D01*
X-543607Y-20018D02*
X20019Y543607D01*
X-543607Y-27203D02*
X27203Y543607D01*
X-543607Y-113413D02*
X113413Y543607D01*
X-543607Y-99045D02*
X99045Y543607D01*
X-543607Y-134966D02*
X134966Y543607D01*
X-543607Y-77492D02*
X77492Y543607D01*
X-543607Y-91861D02*
X91861Y543607D01*
X-543607Y23087D02*
X-23087Y543607D01*
X-543607Y30271D02*
X-30271Y543607D01*
X-543607Y15903D02*
X-15903Y543607D01*
X-543607Y66192D02*
X-66192Y543607D01*
X-543607Y37455D02*
X-37455Y543607D01*
X-543607Y-5650D02*
X5650Y543607D01*
X-543607Y-12834D02*
X12834Y543607D01*
X-543607Y8718D02*
X-8718Y543607D01*
X-543607Y1534D02*
X-1534Y543607D01*
X-361191D02*
X-77436Y259853D01*
X-368375Y543607D02*
X-82984Y258216D01*
X-375559Y543607D02*
X-88306Y256354D01*
X-382743Y543607D02*
X-93628Y254492D01*
X-389928Y543607D02*
X-98849Y252529D01*
X-325270Y543607D02*
X-48450Y266788D01*
X-332454Y543607D02*
X-54511Y265665D01*
X-339638Y543607D02*
X-60360Y264330D01*
X-346822Y543607D02*
X-66210Y262995D01*
X-354007Y543607D02*
X-71859Y261459D01*
X-397112Y543607D02*
X-103929Y250424D01*
X-404296Y543607D02*
X-109009Y248320D01*
X-411480Y543607D02*
X-113939Y246066D01*
X-423179Y505017D02*
X-146393Y228230D01*
X-422830Y497484D02*
X-150793Y225447D01*
X-124340Y241057D02*
X-110942Y247509D01*
X-137660Y233706D02*
X-124645Y240899D01*
X-150548Y225620D02*
X-137956Y233531D01*
X-424062Y491531D02*
X-155002Y222471D01*
X-426261Y486546D02*
X-159204Y219489D01*
X-429218Y482319D02*
X-163392Y216493D01*
X-432856Y478773D02*
X-167389Y213305D01*
X-437181Y475913D02*
X-171385Y210118D01*
X-442281Y473829D02*
X-175363Y206911D01*
X-448397Y472761D02*
X-179157Y203521D01*
X-162961Y216824D02*
X-150834Y225429D01*
X-174862Y207345D02*
X-163236Y216617D01*
X-186213Y197214D02*
X-175125Y207123D01*
X-196978Y186463D02*
X-186463Y196978D01*
X-207123Y175125D02*
X-197214Y186213D01*
X-216617Y163236D02*
X-207345Y174862D01*
X-225429Y150834D02*
X-216824Y162961D01*
X-233531Y137956D02*
X-225620Y150547D01*
X-240899Y124645D02*
X-233706Y137660D01*
X-247509Y110942D02*
X-241057Y124339D01*
X-247509Y-110942D02*
X-241057Y-124340D01*
X-240899Y-124645D02*
X-233706Y-137660D01*
X-253340Y96889D02*
X-247650Y110628D01*
X-253340Y-96889D02*
X-247650Y-110628D01*
X-456263Y473442D02*
X-182950Y200130D01*
X-485984Y481611D02*
X-193907Y189534D01*
X-485984Y474428D02*
X-197476Y185920D01*
X-485984Y495979D02*
X-186723Y196718D01*
X-485984Y488795D02*
X-190315Y193126D01*
X-485984Y452875D02*
X-207623Y174514D01*
X-485984Y445691D02*
X-210810Y170517D01*
X-485984Y438507D02*
X-213998Y166521D01*
X-485984Y467244D02*
X-200867Y182126D01*
X-485984Y460060D02*
X-204257Y178333D01*
X-485984Y431323D02*
X-217155Y162494D01*
X-485984Y424138D02*
X-220137Y158292D01*
X-485984Y416954D02*
X-223119Y154089D01*
X-485985Y409771D02*
X-226060Y149846D01*
X-486884Y403486D02*
X-228833Y145434D01*
X-488975Y398393D02*
X-231605Y141022D01*
X-491938Y394172D02*
X-234319Y136552D01*
X-495675Y390724D02*
X-236876Y131925D01*
X-500207Y388072D02*
X-239433Y127298D01*
X-543607Y94929D02*
X-94929Y543607D01*
X-543607Y102113D02*
X-102113Y543607D01*
X-543607Y87745D02*
X-87745Y543607D01*
X-543607Y116482D02*
X-116482Y543607D01*
X-543607Y109297D02*
X-109297Y543607D01*
X-543607Y51824D02*
X-51824Y543607D01*
X-543607Y59008D02*
X-59008Y543607D01*
X-543607Y44639D02*
X-44639Y543607D01*
X-543607Y80560D02*
X-80560Y543607D01*
X-543607Y73376D02*
X-73376Y543607D01*
X-505693Y386373D02*
X-241903Y122584D01*
X-524683Y390995D02*
X-246573Y112885D01*
X-543607Y388367D02*
X-252986Y97745D01*
X-543607Y402735D02*
X-248777Y107905D01*
X-543607Y395551D02*
X-250882Y102825D01*
X-512632Y386129D02*
X-244238Y117734D01*
X-543607Y172841D02*
X-234447Y-136320D01*
X-543607Y187209D02*
X-248978Y-107420D01*
X-543607Y180025D02*
X-242742Y-120840D01*
X-448929Y527265D02*
X-432587Y543607D01*
X-461770D02*
X-444983Y526821D01*
X-457007Y526371D02*
X-439771Y543607D01*
X-468954D02*
X-452516Y527170D01*
X-476138Y543607D02*
X-458469Y525938D01*
X-429477Y517981D02*
X-403850Y543607D01*
X-433167Y521475D02*
X-411034Y543607D01*
X-426465Y513808D02*
X-396666Y543607D01*
X-442715Y526295D02*
X-425403Y543607D01*
X-437547Y524279D02*
X-418218Y543607D01*
X-496572Y529911D02*
X-482876Y543607D01*
X-501288Y532380D02*
X-490061Y543607D01*
X-492671Y526628D02*
X-475692Y543607D01*
X-507021Y533831D02*
X-497245Y543607D01*
X-504875D02*
X-474087Y512819D01*
X-483322Y543607D02*
X-463454Y523739D01*
X-489540Y522575D02*
X-468508Y543607D01*
X-487247Y517684D02*
X-461324Y543607D01*
X-490507D02*
X-467681Y520782D01*
X-497691Y543607D02*
X-471227Y517144D01*
X-422882Y503023D02*
X-382297Y543607D01*
X-424202Y508887D02*
X-389482Y543607D01*
X-423062Y495659D02*
X-375113Y543607D01*
X-486044Y511702D02*
X-454139Y543607D01*
X-485984Y504579D02*
X-446955Y543607D01*
X-429221Y482315D02*
X-367929Y543607D01*
X-485984Y411184D02*
X-353560Y543607D01*
X-485984Y418368D02*
X-360745Y543607D01*
X-487046Y402938D02*
X-346376Y543607D01*
X-485984Y497394D02*
X-476371Y507007D01*
X-485984Y503164D02*
X-476558Y493737D01*
X-485984Y410000D02*
Y510000D01*
X-487936Y519484D02*
X-476171Y507719D01*
X-485987Y510350D02*
X-477239Y501603D01*
X-485984Y475842D02*
X-474279Y487547D01*
X-485984Y468657D02*
X-471475Y483167D01*
X-485984Y490210D02*
X-477265Y498929D01*
X-485984Y483026D02*
X-476295Y492715D01*
X-526428Y543607D02*
X-516059Y533239D01*
X-533612Y543607D02*
X-521232Y531228D01*
X-540796Y543607D02*
X-525518Y528329D01*
X-543607Y525981D02*
X-525981Y543607D01*
X-543607Y518797D02*
X-518797Y543607D01*
X-514433Y533603D02*
X-504429Y543607D01*
X-519243D02*
X-509650Y534013D01*
X-512059Y543607D02*
X-500516Y532064D01*
X-543607Y511613D02*
X-511613Y543607D01*
X-543607Y539234D02*
X-529027Y524654D01*
X-543607Y532051D02*
X-531747Y520191D01*
X-543607Y524867D02*
X-533533Y514793D01*
X-543607Y540350D02*
X-540350Y543607D01*
X-543607Y533166D02*
X-533166Y543607D01*
X-543607Y510499D02*
X-534016Y500907D01*
X-543607Y497245D02*
X-534016Y506836D01*
X-543607Y517683D02*
X-534016Y508092D01*
X-543607Y504429D02*
X-533603Y514433D01*
X-543607Y303271D02*
X-303271Y543607D01*
X-543607Y310455D02*
X-310455Y543607D01*
X-543607Y296087D02*
X-296087Y543607D01*
X-543607Y324824D02*
X-324824Y543607D01*
X-543607Y317639D02*
X-317639Y543607D01*
X-543607Y267350D02*
X-267350Y543607D01*
X-543607Y274534D02*
X-274534Y543607D01*
X-543607Y260166D02*
X-260166Y543607D01*
X-543607Y288903D02*
X-288902Y543607D01*
X-543607Y281718D02*
X-281718Y543607D01*
X-543607Y339192D02*
X-339192Y543607D01*
X-534016Y410000D02*
Y510000D01*
X-543607Y332008D02*
X-332008Y543607D01*
X-543607Y503314D02*
X-534016Y493723D01*
X-543607Y490061D02*
X-534016Y499652D01*
X-543607Y488946D02*
X-534016Y479355D01*
X-543607Y475692D02*
X-534016Y485283D01*
X-543607Y496130D02*
X-534016Y486539D01*
X-543607Y482876D02*
X-534016Y492467D01*
X-543607Y338078D02*
X-264620Y59090D01*
X-543607Y330893D02*
X-265955Y53241D01*
X-543607Y323709D02*
X-267014Y47116D01*
X-543607Y359630D02*
X-260202Y76224D01*
X-543607Y352446D02*
X-261808Y70647D01*
X-258374Y82532D02*
X-253463Y96568D01*
X-262596Y67915D02*
X-258479Y82204D01*
X-265991Y53084D02*
X-262682Y67582D01*
X-543607Y316525D02*
X-268058Y40975D01*
X-268549Y38087D02*
X-266058Y52747D01*
X-485984Y447105D02*
X-458887Y474202D01*
X-485984Y454289D02*
X-463808Y476465D01*
X-485984Y432736D02*
X-445659Y473062D01*
X-485984Y461473D02*
X-467981Y479477D01*
X-485984Y425552D02*
X-432315Y479221D01*
X-485984Y439921D02*
X-453023Y472882D01*
X-543607Y302156D02*
X-269670Y28219D01*
X-543607Y353560D02*
X-511156Y386012D01*
X-543607Y309341D02*
X-268943Y34676D01*
X-270261Y22969D02*
X-268597Y37746D01*
X-271124Y-7779D02*
X-270290Y-22626D01*
X-543607Y194393D02*
X-253903Y-95311D01*
X-543607Y208762D02*
X-260841Y-74004D01*
X-543607Y201577D02*
X-257770Y-84260D01*
X-262596Y-67915D02*
X-258479Y-82204D01*
X-265991Y-53084D02*
X-262682Y-67582D01*
X-258374Y-82532D02*
X-253463Y-96568D01*
X-270261Y-22969D02*
X-268597Y-37746D01*
X-268549Y-38087D02*
X-266058Y-52747D01*
X-543607Y280604D02*
X-271106Y8102D01*
X-543607Y273420D02*
X-271134Y946D01*
X-543607Y266235D02*
X-271134Y-6238D01*
X-543607Y294972D02*
X-270342Y21707D01*
X-543607Y287788D02*
X-270724Y14905D01*
X-271124Y7779D02*
X-270290Y22626D01*
X-271134Y-7435D02*
Y0D01*
Y7435D01*
X-543607Y251867D02*
X-270360Y-21380D01*
X-543607Y438657D02*
X-534016Y429065D01*
X-543607Y432587D02*
X-534016Y442178D01*
X-543607Y425403D02*
X-534016Y434994D01*
X-543607Y439771D02*
X-534016Y449362D01*
X-543607Y445841D02*
X-534016Y436249D01*
X-543607Y411034D02*
X-534016Y420625D01*
X-543607Y424288D02*
X-534016Y414697D01*
X-543607Y417104D02*
X-533871Y407368D01*
X-543607Y431472D02*
X-534016Y421881D01*
X-543607Y418218D02*
X-534016Y427810D01*
X-543607Y461324D02*
X-534016Y470915D01*
X-543607Y474577D02*
X-534016Y464986D01*
X-543607Y467393D02*
X-534016Y457802D01*
X-543607Y481762D02*
X-534016Y472170D01*
X-543607Y468508D02*
X-534016Y478099D01*
X-543607Y446955D02*
X-534016Y456547D01*
X-543607Y453025D02*
X-534016Y443434D01*
X-543607Y454139D02*
X-534016Y463731D01*
X-543607Y460209D02*
X-534016Y450618D01*
X-543607Y366814D02*
X-258595Y81802D01*
X-543607Y345262D02*
X-263285Y64939D01*
X-543607Y259051D02*
X-270788Y-13768D01*
X-543607Y381183D02*
X-254896Y92472D01*
X-543607Y373999D02*
X-256758Y87150D01*
X-543607Y223130D02*
X-265576Y-54901D01*
X-543607Y230314D02*
X-267186Y-46107D01*
X-543607Y215946D02*
X-263451Y-64210D01*
X-543607Y244683D02*
X-269538Y-29386D01*
X-543607Y237498D02*
X-268626Y-37483D01*
X-543607Y389482D02*
X-532215Y400874D01*
X-543607Y396666D02*
X-533761Y406512D01*
X-543607Y382297D02*
X-529676Y396229D01*
X-543607Y403850D02*
X-534016Y413441D01*
X-543607Y409920D02*
X-529005Y395317D01*
X-543607Y360745D02*
X-517248Y387104D01*
X-543607Y346376D02*
X-502938Y387046D01*
X-543607Y375113D02*
X-526330Y392390D01*
X-543607Y367929D02*
X-522214Y389322D01*
X-145664Y543607D02*
X543607Y-145664D01*
X-138480Y543607D02*
X543607Y-138480D01*
X-152849Y543607D02*
X543607Y-152849D01*
X-160033Y543607D02*
X543607Y-160033D01*
X-543607Y-6765D02*
X-6765Y-543607D01*
X-207123Y-175125D02*
X-197214Y-186213D01*
X-216617Y-163236D02*
X-207345Y-174862D01*
X-485984Y-458106D02*
X-205179Y-177301D01*
X-485984Y-443737D02*
X-211677Y-169431D01*
X-485984Y-450922D02*
X-208490Y-173427D01*
X-233531Y-137956D02*
X-225620Y-150548D01*
X-487355Y-402003D02*
X-229586Y-144235D01*
X-486075Y-407908D02*
X-226814Y-148647D01*
X-492879Y-393159D02*
X-235014Y-135294D01*
X-489701Y-397165D02*
X-232359Y-139823D01*
X-225429Y-150834D02*
X-216824Y-162961D01*
X-485984Y-429369D02*
X-217966Y-161351D01*
X-485984Y-436553D02*
X-214864Y-165434D01*
X-485984Y-415001D02*
X-223930Y-152946D01*
X-485984Y-422185D02*
X-220948Y-157149D01*
X-133248Y-543607D02*
X543607Y133249D01*
X-140433Y-543607D02*
X543607Y140433D01*
X-126064Y-543607D02*
X543607Y126064D01*
X-154801Y-543607D02*
X543607Y154801D01*
X-147617Y-543607D02*
X543607Y147617D01*
X-543607Y-28317D02*
X-28317Y-543607D01*
X-543607Y-35502D02*
X-35501Y-543607D01*
X-543607Y-42686D02*
X-42686Y-543607D01*
X-543607Y-13949D02*
X-13949Y-543607D01*
X-543607Y-21133D02*
X-21133Y-543607D01*
X-543607Y-64238D02*
X-64238Y-543607D01*
X-543607Y-71423D02*
X-71423Y-543607D01*
X-543607Y-78607D02*
X-78607Y-543607D01*
X-543607Y-49870D02*
X-49870Y-543607D01*
X-543607Y-57054D02*
X-57054Y-543607D01*
X-543607Y-100160D02*
X-100159Y-543607D01*
X-543607Y-107344D02*
X-107344Y-543607D01*
X-543607Y-85791D02*
X-85791Y-543607D01*
X-543607Y-92975D02*
X-92975Y-543607D01*
X-543607Y-149334D02*
X149334Y543607D01*
X-543607Y-142150D02*
X142150Y543607D01*
X-543607Y-156519D02*
X156519Y543607D01*
X-543607Y151288D02*
X151288Y-543607D01*
X-543607Y144104D02*
X144104Y-543607D01*
X-543607Y65077D02*
X65077Y-543607D01*
X-543607Y57893D02*
X57893Y-543607D01*
X-543607Y50709D02*
X50709Y-543607D01*
X-543607Y136919D02*
X136920Y-543607D01*
X-543607Y129735D02*
X129735Y-543607D01*
X-543607Y-163703D02*
X-216413Y163491D01*
X-543607Y-170887D02*
X-231448Y141273D01*
X-543607Y36341D02*
X36341Y-543607D01*
X-543607Y165656D02*
X-221304Y-156647D01*
X-543607Y43525D02*
X43525Y-543607D01*
X-543607Y14788D02*
X14788Y-543607D01*
X-543607Y7604D02*
X7604Y-543607D01*
X-543607Y29156D02*
X29156Y-543607D01*
X-543607Y21972D02*
X21972Y-543607D01*
X-543607Y115367D02*
X115367Y-543607D01*
X-543607Y108183D02*
X108183Y-543607D01*
X-543607Y100998D02*
X100998Y-543607D01*
X-543607Y158472D02*
X158472Y-543607D01*
X-543607Y122551D02*
X122551Y-543607D01*
X-543607Y79446D02*
X79446Y-543607D01*
X-543607Y72262D02*
X72262Y-543607D01*
X-543607Y419D02*
X419Y-543607D01*
X-543607Y93814D02*
X93814Y-543607D01*
X-543607Y86630D02*
X86630Y-543607D01*
X-543607Y-128896D02*
X-128896Y-543607D01*
X-543607Y-136081D02*
X-136081Y-543607D01*
X-543607Y-143265D02*
X-143265Y-543607D01*
X-543607Y-114528D02*
X-114528Y-543607D01*
X-543607Y-121712D02*
X-121712Y-543607D01*
X-543607Y-164817D02*
X-164817Y-543607D01*
X-543607Y-172002D02*
X-172002Y-543607D01*
X-543607Y-150449D02*
X-150449Y-543607D01*
X-543607Y-157633D02*
X-157633Y-543607D01*
X-248196D02*
X25427Y-269985D01*
X-291301Y-543607D02*
X-18231Y-270537D01*
X-241012Y-543607D02*
X33523Y-269072D01*
X-305669Y-543607D02*
X-31376Y-269314D01*
X-298485Y-543607D02*
X-24920Y-270042D01*
X-262564Y-543607D02*
X10046Y-270997D01*
X-269748Y-543607D02*
X2725Y-271134D01*
X-255380Y-543607D02*
X17658Y-270569D01*
X-284117Y-543607D02*
X-11429Y-270919D01*
X-276933Y-543607D02*
X-4459Y-271134D01*
X-162961Y-216824D02*
X-150834Y-225429D01*
X-174862Y-207345D02*
X-163236Y-216617D01*
X-150548Y-225620D02*
X-137956Y-233531D01*
X-196978Y-186463D02*
X-186463Y-196978D01*
X-186213Y-197214D02*
X-175125Y-207123D01*
X-124339Y-241057D02*
X-110942Y-247509D01*
X-137660Y-233706D02*
X-124645Y-240899D01*
X-312854Y-543607D02*
X-37819Y-268573D01*
X-370327Y-543607D02*
X-84430Y-257710D01*
X-320038Y-543607D02*
X-43978Y-267547D01*
X-161985Y-543607D02*
X171971Y-209651D01*
X-156647Y-221304D02*
X165656Y-543607D01*
X-136320Y-234447D02*
X172841Y-543607D01*
X-176354D02*
X128466Y-238787D01*
X-169170Y-543607D02*
X145894Y-228544D01*
X-190722Y-543607D02*
X101423Y-251463D01*
X-197906Y-543607D02*
X89907Y-255794D01*
X-183538Y-543607D02*
X114064Y-246006D01*
X-212275Y-543607D02*
X69070Y-262263D01*
X-205091Y-543607D02*
X79161Y-259356D01*
X-341591Y-543607D02*
X-61950Y-263967D01*
X-348775Y-543607D02*
X-67775Y-262607D01*
X-219459Y-543607D02*
X59658Y-264490D01*
X-363143Y-543607D02*
X-78952Y-259416D01*
X-355959Y-543607D02*
X-73374Y-261023D01*
X-233827Y-543607D02*
X41875Y-267905D01*
X-226643Y-543607D02*
X50530Y-266434D01*
X-334406Y-543607D02*
X-56101Y-265302D01*
X-327222Y-543607D02*
X-50119Y-266504D01*
X-426995Y-485327D02*
X-160347Y-218679D01*
X-430140Y-481289D02*
X-164478Y-215626D01*
X-424576Y-490093D02*
X-156144Y-221661D01*
X-438484Y-475263D02*
X-172472Y-209252D01*
X-433961Y-477925D02*
X-168475Y-212439D01*
X-422852Y-502737D02*
X-147592Y-227477D01*
X-423047Y-495748D02*
X-151942Y-224643D01*
X-426105Y-513175D02*
X-143180Y-230249D01*
X-543607Y-543607D02*
X543607D01*
X-449354D02*
X-138768Y-233022D01*
X-485984Y-486843D02*
X-191291Y-192150D01*
X-485984Y-479659D02*
X-194883Y-188558D01*
X-485984Y-486843D02*
X-191291Y-192150D01*
X-485984Y-465290D02*
X-201789Y-181095D01*
X-485984Y-472474D02*
X-198398Y-184888D01*
X-450304Y-472716D02*
X-180188Y-202599D01*
X-443826Y-473422D02*
X-176394Y-205989D01*
X-459021Y-474249D02*
X-183981Y-199209D01*
X-485984Y-494027D02*
X-187699Y-195742D01*
X-420617Y-543607D02*
X-120106Y-243096D01*
X-427801Y-543607D02*
X-124934Y-240740D01*
X-413433Y-543607D02*
X-115257Y-245431D01*
X-442169Y-543607D02*
X-134188Y-235625D01*
X-434985Y-543607D02*
X-129561Y-238183D01*
X-384696Y-543607D02*
X-95074Y-253986D01*
X-391880Y-543607D02*
X-100230Y-251957D01*
X-377512Y-543607D02*
X-89752Y-255848D01*
X-406249Y-543607D02*
X-110389Y-247748D01*
X-399064Y-543607D02*
X-105309Y-249853D01*
X-543607Y-193554D02*
X-193554Y-543607D01*
X-543607Y-200739D02*
X-200738Y-543607D01*
X-543607Y-207923D02*
X-207923Y-543607D01*
X-543607Y-179186D02*
X-179186Y-543607D01*
X-543607Y-186370D02*
X-186370Y-543607D01*
X-543607Y-229475D02*
X-229475Y-543607D01*
X-543607Y-236660D02*
X-236660Y-543607D01*
X-543607Y-215107D02*
X-215107Y-543607D01*
X-543607Y-222291D02*
X-222291Y-543607D01*
X-543607Y-393597D02*
X-251454Y-101444D01*
X-543607Y-386413D02*
X-253540Y-96347D01*
X-543607Y-400782D02*
X-249349Y-106524D01*
X-543607Y-372045D02*
X-257265Y-85703D01*
X-543607Y-379229D02*
X-255403Y-91025D01*
X-501592Y-387504D02*
X-240128Y-126040D01*
X-507398Y-386125D02*
X-242538Y-121265D01*
X-496825Y-389921D02*
X-237571Y-130667D01*
X-514958Y-386501D02*
X-244873Y-116416D01*
X-543607Y-407966D02*
X-247208Y-111567D01*
X-543607Y-373160D02*
X-525288Y-391479D01*
X-543607Y-380344D02*
X-528842Y-395109D01*
X-543607Y-364861D02*
X-259032Y-80285D01*
X-543607Y-365975D02*
X-520955Y-388628D01*
X-543607Y-415150D02*
X-533499Y-405042D01*
X-543607Y-401896D02*
X-534016Y-411488D01*
X-543607Y-409081D02*
X-534016Y-418672D01*
X-543607Y-387528D02*
X-531611Y-399524D01*
X-543607Y-394712D02*
X-533460Y-404860D01*
X-543607Y-265396D02*
X-265396Y-543607D01*
X-543607Y-272581D02*
X-272581Y-543607D01*
X-543607Y-279765D02*
X-279765Y-543607D01*
X-543607Y-251028D02*
X-251028Y-543607D01*
X-543607Y-258212D02*
X-258212Y-543607D01*
X-485997Y-409217D02*
X-351607Y-543607D01*
X-485984Y-416414D02*
X-358791Y-543607D01*
X-485984Y-423599D02*
X-365975Y-543607D01*
X-543607Y-308502D02*
X-308502Y-543607D01*
X-488282Y-399748D02*
X-344423Y-543607D01*
X-534016Y-510000D02*
Y-410000D01*
X-543607Y-429519D02*
X-534016Y-419927D01*
X-485984Y-510000D02*
Y-410000D01*
X-543607Y-422334D02*
X-534016Y-412743D01*
X-543607Y-416265D02*
X-534016Y-425856D01*
X-543607Y-430633D02*
X-534016Y-440224D01*
X-485984Y-430783D02*
X-443189Y-473578D01*
X-543607Y-423449D02*
X-534016Y-433040D01*
X-543607Y-436703D02*
X-534016Y-427112D01*
X-543607Y-192440D02*
X-252677Y98491D01*
X-543607Y-199624D02*
X-256718Y87265D01*
X-543607Y-206808D02*
X-260051Y76749D01*
X-543607Y-178071D02*
X-240903Y124633D01*
X-543607Y-185255D02*
X-247544Y110808D01*
X-543607Y-228361D02*
X-266786Y48461D01*
X-543607Y-235545D02*
X-268256Y39806D01*
X-543607Y-307387D02*
X-269140Y-32920D01*
X-543607Y-213992D02*
X-262873Y66742D01*
X-543607Y-221176D02*
X-264998Y57433D01*
X-543607Y-257097D02*
X-270672Y15838D01*
X-543607Y-264282D02*
X-271099Y8226D01*
X-543607Y-271466D02*
X-271134Y1007D01*
X-543607Y-242729D02*
X-269290Y31588D01*
X-543607Y-249913D02*
X-270203Y23491D01*
X-543607Y-293019D02*
X-270446Y-19857D01*
X-543607Y-300203D02*
X-269868Y-26463D01*
X-543607Y-278650D02*
X-271134Y-6177D01*
X-543607Y-285834D02*
X-270828Y-13055D01*
X-543607Y-336124D02*
X-264983Y-57499D01*
X-543607Y-328940D02*
X-266255Y-51587D01*
X-543607Y-343308D02*
X-263648Y-63348D01*
X-543607Y-314571D02*
X-268341Y-39305D01*
X-543607Y-321755D02*
X-267298Y-45446D01*
X-543607Y-243844D02*
X-243844Y-543607D01*
X-543607Y-286949D02*
X-286949Y-543607D01*
X-543607Y-294133D02*
X-294133Y-543607D01*
X-543607Y-350492D02*
X-262245Y-69130D01*
X-543607Y-357677D02*
X-260639Y-74708D01*
X-543607Y-315686D02*
X-315686Y-543607D01*
X-543607Y-322870D02*
X-322870Y-543607D01*
X-543607Y-330054D02*
X-330054Y-543607D01*
X-543607Y543607D02*
X-543607Y-543607D01*
X-543607Y-301317D02*
X-301317Y-543607D01*
X-543607Y-351607D02*
X-509217Y-385997D01*
X-543607Y-358791D02*
X-515723Y-386676D01*
X-543607Y-344423D02*
X-499748Y-388282D01*
X-543607Y-337239D02*
X-337238Y-543607D01*
X-485984Y-452335D02*
X-462549Y-475771D01*
X-485984Y-459520D02*
X-466914Y-478589D01*
X-485984Y-437967D02*
X-451210Y-472741D01*
X-485984Y-445151D02*
X-457399Y-473736D01*
X-485984Y-502625D02*
X-445002Y-543607D01*
X-486794Y-516184D02*
X-459370Y-543607D01*
X-485984Y-509809D02*
X-452186Y-543607D01*
X-492459D02*
X-468711Y-519860D01*
X-488827Y-521334D02*
X-466554Y-543607D01*
X-485984Y-481072D02*
X-475835Y-491221D01*
X-485984Y-488256D02*
X-477132Y-497108D01*
X-485984Y-501211D02*
X-475751Y-490979D01*
X-485984Y-466704D02*
X-470591Y-482097D01*
X-485984Y-473888D02*
X-473588Y-486284D01*
X-485984Y-495441D02*
X-476910Y-504515D01*
X-485984Y-508395D02*
X-477284Y-499696D01*
X-486871Y-516467D02*
X-476578Y-506174D01*
X-506828Y-543607D02*
X-474737Y-511516D01*
X-491743Y-525603D02*
X-473739Y-543607D01*
X-423578Y-493189D02*
X-373159Y-543607D01*
X-423736Y-507399D02*
X-387528Y-543607D01*
X-422741Y-501210D02*
X-380344Y-543607D01*
X-428589Y-516914D02*
X-401896Y-543607D01*
X-425771Y-512549D02*
X-394712Y-543607D01*
X-436284Y-523588D02*
X-416265Y-543607D01*
X-441221Y-525835D02*
X-423449Y-543607D01*
X-432097Y-520591D02*
X-409081Y-543607D01*
X-456538D02*
X-436825Y-523895D01*
X-447108Y-527132D02*
X-430633Y-543607D01*
X-470906D02*
X-454252Y-526953D01*
X-478091Y-543607D02*
X-459907Y-525424D01*
X-454515Y-526910D02*
X-437817Y-543607D01*
X-499643D02*
X-472075Y-516039D01*
X-485275Y-543607D02*
X-464673Y-523005D01*
X-495435Y-529095D02*
X-480923Y-543607D01*
X-463722D02*
X-447263Y-527148D01*
X-505339Y-533559D02*
X-495291Y-543607D01*
X-499917Y-531797D02*
X-488107Y-543607D01*
X-543607Y-486992D02*
X-534016Y-477401D01*
X-543607Y-473739D02*
X-534016Y-483330D01*
X-543607Y-480923D02*
X-534016Y-490514D01*
X-543607Y-466554D02*
X-534016Y-476146D01*
X-543607Y-479808D02*
X-534016Y-470217D01*
X-543607Y-495291D02*
X-534016Y-504882D01*
X-543607Y-501361D02*
X-534016Y-491769D01*
X-543607Y-508545D02*
X-534016Y-498954D01*
X-543607Y-494176D02*
X-534016Y-484585D01*
X-543607Y-488107D02*
X-534016Y-497698D01*
X-543607Y-445002D02*
X-534016Y-454593D01*
X-543607Y-451071D02*
X-534016Y-441480D01*
X-543607Y-458255D02*
X-534016Y-448664D01*
X-543607Y-443887D02*
X-534016Y-434296D01*
X-543607Y-437817D02*
X-534016Y-447409D01*
X-543607Y-459370D02*
X-534016Y-468961D01*
X-543607Y-472624D02*
X-534016Y-463033D01*
X-543607Y-452186D02*
X-534016Y-461777D01*
X-543607Y-465440D02*
X-534016Y-455849D01*
X-542748Y-543607D02*
X-526547Y-527406D01*
X-523211Y-530056D02*
X-509660Y-543607D01*
X-543607Y-516844D02*
X-516844Y-543607D01*
X-543607Y-524028D02*
X-524028Y-543607D01*
X-514012D02*
X-503533Y-533129D01*
X-521196Y-543607D02*
X-511554Y-533966D01*
X-512164Y-533918D02*
X-502475Y-543607D01*
X-535564D02*
X-522477Y-530520D01*
X-528380Y-543607D02*
X-517566Y-532793D01*
X-543607Y-509660D02*
X-530056Y-523211D01*
X-543607Y-522913D02*
X-533813Y-513119D01*
X-543607Y-530098D02*
X-532336Y-518826D01*
X-543607Y-502475D02*
X-533918Y-512164D01*
X-543607Y-515729D02*
X-534016Y-506138D01*
X-543607Y-538396D02*
X-538396Y-543607D01*
X-542748D02*
X-526547Y-527406D01*
X-543607Y-537282D02*
X-529847Y-523522D01*
X-543607Y-531212D02*
X-531212Y-543607D01*
D13*
X-510000Y-460000D02*
D03*
X510000D02*
D03*
Y460000D02*
D03*
X-510000D02*
D03*
M02*
